%TF.GenerationSoftware,KiCad,Pcbnew,8.0.3*%
%TF.CreationDate,2024-06-28T00:17:39-05:00*%
%TF.ProjectId,Example PCB,4578616d-706c-4652-9050-43422e6b6963,rev?*%
%TF.SameCoordinates,Original*%
%TF.FileFunction,Copper,L1,Top*%
%TF.FilePolarity,Positive*%
%FSLAX46Y46*%
G04 Gerber Fmt 4.6, Leading zero omitted, Abs format (unit mm)*
G04 Created by KiCad (PCBNEW 8.0.3) date 2024-06-28 00:17:39*
%MOMM*%
%LPD*%
G01*
G04 APERTURE LIST*
G04 Aperture macros list*
%AMRoundRect*
0 Rectangle with rounded corners*
0 $1 Rounding radius*
0 $2 $3 $4 $5 $6 $7 $8 $9 X,Y pos of 4 corners*
0 Add a 4 corners polygon primitive as box body*
4,1,4,$2,$3,$4,$5,$6,$7,$8,$9,$2,$3,0*
0 Add four circle primitives for the rounded corners*
1,1,$1+$1,$2,$3*
1,1,$1+$1,$4,$5*
1,1,$1+$1,$6,$7*
1,1,$1+$1,$8,$9*
0 Add four rect primitives between the rounded corners*
20,1,$1+$1,$2,$3,$4,$5,0*
20,1,$1+$1,$4,$5,$6,$7,0*
20,1,$1+$1,$6,$7,$8,$9,0*
20,1,$1+$1,$8,$9,$2,$3,0*%
G04 Aperture macros list end*
%TA.AperFunction,SMDPad,CuDef*%
%ADD10R,1.000000X0.800000*%
%TD*%
%TA.AperFunction,SMDPad,CuDef*%
%ADD11R,0.700000X1.500000*%
%TD*%
%TA.AperFunction,SMDPad,CuDef*%
%ADD12R,1.200000X1.400000*%
%TD*%
%TA.AperFunction,SMDPad,CuDef*%
%ADD13RoundRect,0.075000X-0.700000X-0.075000X0.700000X-0.075000X0.700000X0.075000X-0.700000X0.075000X0*%
%TD*%
%TA.AperFunction,SMDPad,CuDef*%
%ADD14RoundRect,0.075000X-0.075000X-0.700000X0.075000X-0.700000X0.075000X0.700000X-0.075000X0.700000X0*%
%TD*%
%TA.AperFunction,SMDPad,CuDef*%
%ADD15RoundRect,0.375000X-0.375000X0.625000X-0.375000X-0.625000X0.375000X-0.625000X0.375000X0.625000X0*%
%TD*%
%TA.AperFunction,SMDPad,CuDef*%
%ADD16RoundRect,0.500000X-1.400000X0.500000X-1.400000X-0.500000X1.400000X-0.500000X1.400000X0.500000X0*%
%TD*%
%TA.AperFunction,SMDPad,CuDef*%
%ADD17RoundRect,0.135000X-0.135000X-0.185000X0.135000X-0.185000X0.135000X0.185000X-0.135000X0.185000X0*%
%TD*%
%TA.AperFunction,SMDPad,CuDef*%
%ADD18RoundRect,0.135000X0.135000X0.185000X-0.135000X0.185000X-0.135000X-0.185000X0.135000X-0.185000X0*%
%TD*%
%TA.AperFunction,SMDPad,CuDef*%
%ADD19RoundRect,0.135000X0.185000X-0.135000X0.185000X0.135000X-0.185000X0.135000X-0.185000X-0.135000X0*%
%TD*%
%TA.AperFunction,ComponentPad*%
%ADD20R,1.700000X1.700000*%
%TD*%
%TA.AperFunction,ComponentPad*%
%ADD21O,1.700000X1.700000*%
%TD*%
%TA.AperFunction,SMDPad,CuDef*%
%ADD22R,1.300000X0.450000*%
%TD*%
%TA.AperFunction,ComponentPad*%
%ADD23O,1.800000X1.150000*%
%TD*%
%TA.AperFunction,ComponentPad*%
%ADD24O,2.000000X1.450000*%
%TD*%
%TA.AperFunction,SMDPad,CuDef*%
%ADD25RoundRect,0.218750X-0.256250X0.218750X-0.256250X-0.218750X0.256250X-0.218750X0.256250X0.218750X0*%
%TD*%
%TA.AperFunction,SMDPad,CuDef*%
%ADD26RoundRect,0.140000X0.140000X0.170000X-0.140000X0.170000X-0.140000X-0.170000X0.140000X-0.170000X0*%
%TD*%
%TA.AperFunction,SMDPad,CuDef*%
%ADD27RoundRect,0.140000X0.170000X-0.140000X0.170000X0.140000X-0.170000X0.140000X-0.170000X-0.140000X0*%
%TD*%
%TA.AperFunction,SMDPad,CuDef*%
%ADD28RoundRect,0.140000X-0.140000X-0.170000X0.140000X-0.170000X0.140000X0.170000X-0.140000X0.170000X0*%
%TD*%
%TA.AperFunction,SMDPad,CuDef*%
%ADD29RoundRect,0.140000X-0.170000X0.140000X-0.170000X-0.140000X0.170000X-0.140000X0.170000X0.140000X0*%
%TD*%
%TA.AperFunction,SMDPad,CuDef*%
%ADD30RoundRect,0.225000X-0.225000X-0.250000X0.225000X-0.250000X0.225000X0.250000X-0.225000X0.250000X0*%
%TD*%
%TA.AperFunction,SMDPad,CuDef*%
%ADD31RoundRect,0.250000X0.475000X-0.250000X0.475000X0.250000X-0.475000X0.250000X-0.475000X-0.250000X0*%
%TD*%
%TA.AperFunction,SMDPad,CuDef*%
%ADD32RoundRect,0.250000X-0.250000X-0.475000X0.250000X-0.475000X0.250000X0.475000X-0.250000X0.475000X0*%
%TD*%
%TA.AperFunction,ViaPad*%
%ADD33C,0.700000*%
%TD*%
%TA.AperFunction,Conductor*%
%ADD34C,0.300000*%
%TD*%
G04 APERTURE END LIST*
D10*
%TO.P,SW1,*%
%TO.N,*%
X114900000Y-105210000D03*
X114900000Y-103000000D03*
X107600000Y-105210000D03*
X107600000Y-103000000D03*
D11*
%TO.P,SW1,1,A*%
%TO.N,GND*%
X113500000Y-105860000D03*
%TO.P,SW1,2,B*%
%TO.N,/SW_BOOT0*%
X110500000Y-105860000D03*
%TO.P,SW1,3,C*%
%TO.N,+3.3V*%
X109000000Y-105860000D03*
%TD*%
D12*
%TO.P,Y1,1,1*%
%TO.N,/HSE_IN*%
X99300000Y-113500000D03*
%TO.P,Y1,2,2*%
%TO.N,GND*%
X99300000Y-115700000D03*
%TO.P,Y1,3,3*%
%TO.N,/HSE_OUT*%
X101000000Y-115700000D03*
%TO.P,Y1,4,4*%
%TO.N,GND*%
X101000000Y-113500000D03*
%TD*%
D13*
%TO.P,U2,1,VBAT*%
%TO.N,+3.3V*%
X106325000Y-113250000D03*
%TO.P,U2,2,PC13*%
%TO.N,unconnected-(U2-PC13-Pad2)*%
X106325000Y-113750000D03*
%TO.P,U2,3,PC14*%
%TO.N,unconnected-(U2-PC14-Pad3)*%
X106325000Y-114250000D03*
%TO.P,U2,4,PC15*%
%TO.N,unconnected-(U2-PC15-Pad4)*%
X106325000Y-114750000D03*
%TO.P,U2,5,PF0*%
%TO.N,/HSE_IN*%
X106325000Y-115250000D03*
%TO.P,U2,6,PF1*%
%TO.N,/HSE_OUT*%
X106325000Y-115750000D03*
%TO.P,U2,7,NRST*%
%TO.N,/NRST*%
X106325000Y-116250000D03*
%TO.P,U2,8,PC0*%
%TO.N,unconnected-(U2-PC0-Pad8)*%
X106325000Y-116750000D03*
%TO.P,U2,9,PC1*%
%TO.N,unconnected-(U2-PC1-Pad9)*%
X106325000Y-117250000D03*
%TO.P,U2,10,PC2*%
%TO.N,unconnected-(U2-PC2-Pad10)*%
X106325000Y-117750000D03*
%TO.P,U2,11,PC3*%
%TO.N,unconnected-(U2-PC3-Pad11)*%
X106325000Y-118250000D03*
%TO.P,U2,12,VSSA*%
%TO.N,GND*%
X106325000Y-118750000D03*
%TO.P,U2,13,VDDA*%
%TO.N,+3.3VA*%
X106325000Y-119250000D03*
%TO.P,U2,14,PA0*%
%TO.N,unconnected-(U2-PA0-Pad14)*%
X106325000Y-119750000D03*
%TO.P,U2,15,PA1*%
%TO.N,unconnected-(U2-PA1-Pad15)*%
X106325000Y-120250000D03*
%TO.P,U2,16,PA2*%
%TO.N,unconnected-(U2-PA2-Pad16)*%
X106325000Y-120750000D03*
D14*
%TO.P,U2,17,PA3*%
%TO.N,unconnected-(U2-PA3-Pad17)*%
X108250000Y-122675000D03*
%TO.P,U2,18,VSS*%
%TO.N,GND*%
X108750000Y-122675000D03*
%TO.P,U2,19,VDD*%
%TO.N,+3.3V*%
X109250000Y-122675000D03*
%TO.P,U2,20,PA4*%
%TO.N,unconnected-(U2-PA4-Pad20)*%
X109750000Y-122675000D03*
%TO.P,U2,21,PA5*%
%TO.N,unconnected-(U2-PA5-Pad21)*%
X110250000Y-122675000D03*
%TO.P,U2,22,PA6*%
%TO.N,unconnected-(U2-PA6-Pad22)*%
X110750000Y-122675000D03*
%TO.P,U2,23,PA7*%
%TO.N,unconnected-(U2-PA7-Pad23)*%
X111250000Y-122675000D03*
%TO.P,U2,24,PC4*%
%TO.N,/USART1_TX*%
X111750000Y-122675000D03*
%TO.P,U2,25,PC5*%
%TO.N,/USART1_RX*%
X112250000Y-122675000D03*
%TO.P,U2,26,PB0*%
%TO.N,unconnected-(U2-PB0-Pad26)*%
X112750000Y-122675000D03*
%TO.P,U2,27,PB1*%
%TO.N,unconnected-(U2-PB1-Pad27)*%
X113250000Y-122675000D03*
%TO.P,U2,28,PB2*%
%TO.N,unconnected-(U2-PB2-Pad28)*%
X113750000Y-122675000D03*
%TO.P,U2,29,PB10*%
%TO.N,unconnected-(U2-PB10-Pad29)*%
X114250000Y-122675000D03*
%TO.P,U2,30,PB11*%
%TO.N,unconnected-(U2-PB11-Pad30)*%
X114750000Y-122675000D03*
%TO.P,U2,31,VSS*%
%TO.N,GND*%
X115250000Y-122675000D03*
%TO.P,U2,32,VDD*%
%TO.N,+3.3V*%
X115750000Y-122675000D03*
D13*
%TO.P,U2,33,PB12*%
%TO.N,unconnected-(U2-PB12-Pad33)*%
X117675000Y-120750000D03*
%TO.P,U2,34,PB13*%
%TO.N,unconnected-(U2-PB13-Pad34)*%
X117675000Y-120250000D03*
%TO.P,U2,35,PB14*%
%TO.N,unconnected-(U2-PB14-Pad35)*%
X117675000Y-119750000D03*
%TO.P,U2,36,PB15*%
%TO.N,unconnected-(U2-PB15-Pad36)*%
X117675000Y-119250000D03*
%TO.P,U2,37,PC6*%
%TO.N,unconnected-(U2-PC6-Pad37)*%
X117675000Y-118750000D03*
%TO.P,U2,38,PC7*%
%TO.N,unconnected-(U2-PC7-Pad38)*%
X117675000Y-118250000D03*
%TO.P,U2,39,PC8*%
%TO.N,unconnected-(U2-PC8-Pad39)*%
X117675000Y-117750000D03*
%TO.P,U2,40,PC9*%
%TO.N,unconnected-(U2-PC9-Pad40)*%
X117675000Y-117250000D03*
%TO.P,U2,41,PA8*%
%TO.N,/I2C3_SCL*%
X117675000Y-116750000D03*
%TO.P,U2,42,PA9*%
%TO.N,/I2C3_SDA*%
X117675000Y-116250000D03*
%TO.P,U2,43,PA10*%
%TO.N,unconnected-(U2-PA10-Pad43)*%
X117675000Y-115750000D03*
%TO.P,U2,44,PA11*%
%TO.N,/USB_D-*%
X117675000Y-115250000D03*
%TO.P,U2,45,PA12*%
%TO.N,/USB_D+*%
X117675000Y-114750000D03*
%TO.P,U2,46,PA13*%
%TO.N,/SWDIO*%
X117675000Y-114250000D03*
%TO.P,U2,47,VSS*%
%TO.N,GND*%
X117675000Y-113750000D03*
%TO.P,U2,48,VDD*%
%TO.N,+3.3V*%
X117675000Y-113250000D03*
D14*
%TO.P,U2,49,PA14*%
%TO.N,/SWCLK*%
X115750000Y-111325000D03*
%TO.P,U2,50,PA15*%
%TO.N,unconnected-(U2-PA15-Pad50)*%
X115250000Y-111325000D03*
%TO.P,U2,51,PC10*%
%TO.N,unconnected-(U2-PC10-Pad51)*%
X114750000Y-111325000D03*
%TO.P,U2,52,PC11*%
%TO.N,unconnected-(U2-PC11-Pad52)*%
X114250000Y-111325000D03*
%TO.P,U2,53,PC12*%
%TO.N,unconnected-(U2-PC12-Pad53)*%
X113750000Y-111325000D03*
%TO.P,U2,54,PD2*%
%TO.N,unconnected-(U2-PD2-Pad54)*%
X113250000Y-111325000D03*
%TO.P,U2,55,PB3*%
%TO.N,unconnected-(U2-PB3-Pad55)*%
X112750000Y-111325000D03*
%TO.P,U2,56,PB4*%
%TO.N,unconnected-(U2-PB4-Pad56)*%
X112250000Y-111325000D03*
%TO.P,U2,57,PB5*%
%TO.N,unconnected-(U2-PB5-Pad57)*%
X111750000Y-111325000D03*
%TO.P,U2,58,PB6*%
%TO.N,unconnected-(U2-PB6-Pad58)*%
X111250000Y-111325000D03*
%TO.P,U2,59,PB7*%
%TO.N,unconnected-(U2-PB7-Pad59)*%
X110750000Y-111325000D03*
%TO.P,U2,60,BOOT0*%
%TO.N,/BOOT0*%
X110250000Y-111325000D03*
%TO.P,U2,61,PB8*%
%TO.N,unconnected-(U2-PB8-Pad61)*%
X109750000Y-111325000D03*
%TO.P,U2,62,PB9*%
%TO.N,unconnected-(U2-PB9-Pad62)*%
X109250000Y-111325000D03*
%TO.P,U2,63,VSS*%
%TO.N,GND*%
X108750000Y-111325000D03*
%TO.P,U2,64,VDD*%
%TO.N,+3.3V*%
X108250000Y-111325000D03*
%TD*%
D15*
%TO.P,U1,3,VI*%
%TO.N,VBUS*%
X122100000Y-121000000D03*
D16*
%TO.P,U1,2,VO*%
%TO.N,+3.3V*%
X124400000Y-127300000D03*
D15*
X124400000Y-121000000D03*
%TO.P,U1,1,GND*%
%TO.N,GND*%
X126700000Y-121000000D03*
%TD*%
D17*
%TO.P,R5,2*%
%TO.N,+3.3V*%
X119500000Y-127000000D03*
%TO.P,R5,1*%
%TO.N,/I2C3_SDA*%
X118480000Y-127000000D03*
%TD*%
D18*
%TO.P,R4,2*%
%TO.N,+3.3V*%
X114240000Y-127000000D03*
%TO.P,R4,1*%
%TO.N,/I2C3_SCL*%
X115260000Y-127000000D03*
%TD*%
D19*
%TO.P,R3,2*%
%TO.N,+3.3V*%
X122250000Y-113730000D03*
%TO.P,R3,1*%
%TO.N,/USB_D+*%
X122250000Y-114750000D03*
%TD*%
D18*
%TO.P,R2,1*%
%TO.N,/SW_BOOT0*%
X111250000Y-109500000D03*
%TO.P,R2,2*%
%TO.N,/BOOT0*%
X110230000Y-109500000D03*
%TD*%
D17*
%TO.P,R1,2*%
%TO.N,/PWR_LED_K*%
X131760000Y-121550000D03*
%TO.P,R1,1*%
%TO.N,GND*%
X130740000Y-121550000D03*
%TD*%
D20*
%TO.P,J4,1,Pin_1*%
%TO.N,+3.3V*%
X116500000Y-131250000D03*
D21*
%TO.P,J4,2,Pin_2*%
%TO.N,/I2C3_SCL*%
X119040000Y-131250000D03*
%TO.P,J4,3,Pin_3*%
%TO.N,/I2C3_SDA*%
X121580000Y-131250000D03*
%TO.P,J4,4,Pin_4*%
%TO.N,GND*%
X124120000Y-131250000D03*
%TD*%
D22*
%TO.P,J3,1,VBUS*%
%TO.N,VBUS*%
X127095000Y-116000000D03*
%TO.P,J3,2,D-*%
%TO.N,/USB_D-*%
X127095000Y-115350000D03*
%TO.P,J3,3,D+*%
%TO.N,/USB_D+*%
X127095000Y-114700000D03*
%TO.P,J3,4,ID*%
%TO.N,unconnected-(J3-ID-Pad4)*%
X127095000Y-114050000D03*
%TO.P,J3,5,GND*%
%TO.N,GND*%
X127095000Y-113400000D03*
D23*
%TO.P,J3,6,Shield*%
%TO.N,unconnected-(J3-Shield-Pad6)_0*%
X130945000Y-118575000D03*
D24*
%TO.N,unconnected-(J3-Shield-Pad6)*%
X127145000Y-118425000D03*
%TO.N,unconnected-(J3-Shield-Pad6)_2*%
X127145000Y-110975000D03*
D23*
%TO.N,unconnected-(J3-Shield-Pad6)_1*%
X130945000Y-110825000D03*
%TD*%
D21*
%TO.P,J2,4,Pin_4*%
%TO.N,GND*%
X117750000Y-105750000D03*
%TO.P,J2,3,Pin_3*%
%TO.N,/SWCLK*%
X120290000Y-105750000D03*
%TO.P,J2,2,Pin_2*%
%TO.N,/SWDIO*%
X122830000Y-105750000D03*
D20*
%TO.P,J2,1,Pin_1*%
%TO.N,+3.3V*%
X125370000Y-105750000D03*
%TD*%
D21*
%TO.P,J1,4,Pin_4*%
%TO.N,GND*%
X111820000Y-131250000D03*
%TO.P,J1,3,Pin_3*%
%TO.N,/USART1_RX*%
X109280000Y-131250000D03*
%TO.P,J1,2,Pin_2*%
%TO.N,/USART1_TX*%
X106740000Y-131250000D03*
D20*
%TO.P,J1,1,Pin_1*%
%TO.N,+3.3V*%
X104200000Y-131250000D03*
%TD*%
D25*
%TO.P,FB1,1*%
%TO.N,+3.3VA*%
X104750000Y-123755000D03*
%TO.P,FB1,2*%
%TO.N,+3.3V*%
X104750000Y-125330000D03*
%TD*%
%TO.P,D1,2,A*%
%TO.N,+3.3V*%
X131500000Y-125125000D03*
%TO.P,D1,1,K*%
%TO.N,/PWR_LED_K*%
X131500000Y-123550000D03*
%TD*%
D26*
%TO.P,C14,1*%
%TO.N,+3.3V*%
X103440000Y-125330000D03*
%TO.P,C14,2*%
%TO.N,GND*%
X102480000Y-125330000D03*
%TD*%
%TO.P,C13,1*%
%TO.N,+3.3VA*%
X103440000Y-123750000D03*
%TO.P,C13,2*%
%TO.N,GND*%
X102480000Y-123750000D03*
%TD*%
D27*
%TO.P,C12,1*%
%TO.N,+3.3VA*%
X104250000Y-120750000D03*
%TO.P,C12,2*%
%TO.N,GND*%
X104250000Y-119790000D03*
%TD*%
D28*
%TO.P,C11,1*%
%TO.N,+3.3V*%
X108020000Y-109500000D03*
%TO.P,C11,2*%
%TO.N,GND*%
X108980000Y-109500000D03*
%TD*%
D29*
%TO.P,C10,1*%
%TO.N,+3.3V*%
X119750000Y-113020000D03*
%TO.P,C10,2*%
%TO.N,GND*%
X119750000Y-113980000D03*
%TD*%
D26*
%TO.P,C9,1*%
%TO.N,+3.3V*%
X115980000Y-124750000D03*
%TO.P,C9,2*%
%TO.N,GND*%
X115020000Y-124750000D03*
%TD*%
D27*
%TO.P,C8,1*%
%TO.N,/HSE_OUT*%
X102750000Y-116250000D03*
%TO.P,C8,2*%
%TO.N,GND*%
X102750000Y-115290000D03*
%TD*%
D26*
%TO.P,C7,1*%
%TO.N,+3.3V*%
X109480000Y-124750000D03*
%TO.P,C7,2*%
%TO.N,GND*%
X108520000Y-124750000D03*
%TD*%
D27*
%TO.P,C6,1*%
%TO.N,+3.3V*%
X104250000Y-113230000D03*
%TO.P,C6,2*%
%TO.N,GND*%
X104250000Y-112270000D03*
%TD*%
%TO.P,C5,1*%
%TO.N,/HSE_IN*%
X102750000Y-114250000D03*
%TO.P,C5,2*%
%TO.N,GND*%
X102750000Y-113290000D03*
%TD*%
D29*
%TO.P,C4,1*%
%TO.N,/NRST*%
X104250000Y-117790000D03*
%TO.P,C4,2*%
%TO.N,GND*%
X104250000Y-118750000D03*
%TD*%
D30*
%TO.P,C3,1*%
%TO.N,+3.3V*%
X107725000Y-107750000D03*
%TO.P,C3,2*%
%TO.N,GND*%
X109275000Y-107750000D03*
%TD*%
D31*
%TO.P,C2,2*%
%TO.N,GND*%
X129250000Y-123400000D03*
%TO.P,C2,1*%
%TO.N,+3.3V*%
X129250000Y-125300000D03*
%TD*%
D32*
%TO.P,C1,1*%
%TO.N,VBUS*%
X122300000Y-118500000D03*
%TO.P,C1,2*%
%TO.N,GND*%
X124200000Y-118500000D03*
%TD*%
D33*
%TO.N,GND*%
X115500000Y-108500000D03*
X124750000Y-117000000D03*
X124750000Y-112750000D03*
X126750000Y-132250000D03*
X112000000Y-128750000D03*
%TO.N,+3.3V*%
X121000000Y-116070000D03*
X121000000Y-114000000D03*
%TO.N,GND*%
X99300000Y-117200000D03*
X105250000Y-112250000D03*
X103750000Y-115250000D03*
X103250000Y-119750000D03*
X103250000Y-118750000D03*
X129250000Y-121500000D03*
X102500000Y-122750000D03*
X107500000Y-118750000D03*
X109000000Y-112750000D03*
X116393537Y-113558143D03*
X115250000Y-121500000D03*
X108750000Y-121500000D03*
%TD*%
D34*
%TO.N,/USART1_RX*%
X112250000Y-125000000D02*
X112250000Y-122675000D01*
X109250000Y-128000000D02*
X112250000Y-125000000D01*
X109280000Y-131250000D02*
X109280000Y-128030000D01*
%TO.N,+3.3VA*%
X105446880Y-119250000D02*
X106325000Y-119250000D01*
X104375000Y-120821880D02*
X105200000Y-119996880D01*
X105200000Y-119496880D02*
X105446880Y-119250000D01*
X104375000Y-120875000D02*
X104375000Y-120821880D01*
X104250000Y-120750000D02*
X104375000Y-120875000D01*
X105200000Y-119996880D02*
X105200000Y-119496880D01*
X104750000Y-123755000D02*
X104750000Y-121250000D01*
X104750000Y-121250000D02*
X104250000Y-120750000D01*
X103440000Y-123750000D02*
X104745000Y-123750000D01*
X104745000Y-123750000D02*
X104750000Y-123755000D01*
%TO.N,/NRST*%
X105207106Y-116250000D02*
X106325000Y-116250000D01*
X104250000Y-117000000D02*
X104457106Y-117000000D01*
X104457106Y-117000000D02*
X105207106Y-116250000D01*
X104250000Y-117790000D02*
X104250000Y-117000000D01*
%TO.N,GND*%
X113610000Y-105860000D02*
X115625000Y-107875000D01*
X113500000Y-105860000D02*
X113610000Y-105860000D01*
X117750000Y-105750000D02*
X115625000Y-107875000D01*
X115625000Y-107875000D02*
X115500000Y-108000000D01*
X115500000Y-108000000D02*
X115500000Y-108500000D01*
X124200000Y-117550000D02*
X124750000Y-117000000D01*
X124200000Y-118500000D02*
X124200000Y-117550000D01*
X125400000Y-113400000D02*
X124750000Y-112750000D01*
X127095000Y-113400000D02*
X125400000Y-113400000D01*
%TO.N,/PWR_LED_K*%
X131500000Y-121810000D02*
X131760000Y-121550000D01*
X131500000Y-123550000D02*
X131500000Y-121810000D01*
%TO.N,GND*%
X126750000Y-132000000D02*
X126750000Y-132250000D01*
X126000000Y-131250000D02*
X126500000Y-131750000D01*
X126500000Y-131750000D02*
X126750000Y-132000000D01*
X124120000Y-131250000D02*
X126000000Y-131250000D01*
X111820000Y-128930000D02*
X112000000Y-128750000D01*
X111820000Y-131250000D02*
X111820000Y-128930000D01*
%TO.N,+3.3V*%
X120500000Y-126750000D02*
X120250000Y-126750000D01*
X120500000Y-120000000D02*
X120500000Y-126750000D01*
X121000000Y-119500000D02*
X120500000Y-120000000D01*
X120250000Y-126750000D02*
X120000000Y-127000000D01*
X120000000Y-127000000D02*
X119500000Y-127000000D01*
X121000000Y-116070000D02*
X121000000Y-119500000D01*
X121000000Y-113020000D02*
X121540000Y-113020000D01*
X121000000Y-113020000D02*
X121000000Y-114000000D01*
X119750000Y-113020000D02*
X121000000Y-113020000D01*
X108250000Y-120750000D02*
X107020000Y-121980000D01*
X108250000Y-113000000D02*
X108250000Y-120750000D01*
X107875000Y-112625000D02*
X108250000Y-113000000D01*
X107020000Y-127520000D02*
X106039999Y-128500000D01*
X107875000Y-112625000D02*
X108250000Y-112250000D01*
X109480000Y-125059999D02*
X107020000Y-127520000D01*
X107020000Y-121980000D02*
X107020000Y-127520000D01*
X107250000Y-113250000D02*
X107875000Y-112625000D01*
X108250000Y-112250000D02*
X108250000Y-111325000D01*
X106325000Y-113250000D02*
X107250000Y-113250000D01*
%TO.N,GND*%
X108750000Y-112500000D02*
X109000000Y-112750000D01*
X108750000Y-111325000D02*
X108750000Y-112500000D01*
%TO.N,+3.3V*%
X105950000Y-133000000D02*
X104200000Y-131250000D01*
X113000000Y-133000000D02*
X105950000Y-133000000D01*
X114240000Y-131760000D02*
X113000000Y-133000000D01*
X114240000Y-129000000D02*
X114240000Y-131760000D01*
X114240000Y-129000000D02*
X114240000Y-130240000D01*
X114240000Y-127000000D02*
X114240000Y-129000000D01*
X122500000Y-132750000D02*
X118000000Y-132750000D01*
X118000000Y-132750000D02*
X116500000Y-131250000D01*
X122780000Y-129030000D02*
X122780000Y-132470000D01*
X122780000Y-132470000D02*
X122500000Y-132750000D01*
X122500000Y-128750000D02*
X122780000Y-129030000D01*
X122500000Y-128750000D02*
X120500000Y-128750000D01*
X124000000Y-128750000D02*
X122500000Y-128750000D01*
X107725000Y-107135000D02*
X109000000Y-105860000D01*
X107725000Y-107750000D02*
X107725000Y-107135000D01*
X125370000Y-107630000D02*
X125370000Y-105750000D01*
X125250000Y-108000000D02*
X125250000Y-107750000D01*
X122135000Y-110615000D02*
X124750000Y-108000000D01*
X125250000Y-107750000D02*
X125370000Y-107630000D01*
X122135000Y-113615000D02*
X122135000Y-110615000D01*
X122250000Y-113730000D02*
X122135000Y-113615000D01*
X124750000Y-108000000D02*
X125250000Y-108000000D01*
X121540000Y-113020000D02*
X122250000Y-113730000D01*
X104750000Y-125330000D02*
X103440000Y-125330000D01*
X104750000Y-125330000D02*
X104750000Y-128250000D01*
X104750000Y-128250000D02*
X104500000Y-128500000D01*
X104500000Y-128500000D02*
X104200000Y-128800000D01*
X106039999Y-128500000D02*
X104500000Y-128500000D01*
X104200000Y-128800000D02*
X104200000Y-131250000D01*
X109480000Y-124750000D02*
X109480000Y-125059999D01*
X115750000Y-131250000D02*
X116500000Y-131250000D01*
X115000000Y-130500000D02*
X115750000Y-131250000D01*
X114240000Y-130240000D02*
X114500000Y-130500000D01*
X114500000Y-130500000D02*
X115000000Y-130500000D01*
X114250000Y-126542893D02*
X115980000Y-124812893D01*
X115980000Y-124812893D02*
X115980000Y-124750000D01*
X114250000Y-127000000D02*
X114250000Y-126542893D01*
X114240000Y-127000000D02*
X114250000Y-127000000D01*
X124400000Y-128350000D02*
X124000000Y-128750000D01*
X120500000Y-128750000D02*
X119500000Y-127750000D01*
X119500000Y-127750000D02*
X119500000Y-127000000D01*
X124400000Y-127300000D02*
X124400000Y-128350000D01*
%TO.N,VBUS*%
X122300000Y-119700000D02*
X122100000Y-119900000D01*
X122300000Y-118500000D02*
X122300000Y-119700000D01*
X122100000Y-119900000D02*
X122100000Y-121250000D01*
X122250000Y-116750000D02*
X122300000Y-116800000D01*
X122300000Y-116800000D02*
X122300000Y-118500000D01*
X122500000Y-116000000D02*
X122250000Y-116250000D01*
X127095000Y-116000000D02*
X122500000Y-116000000D01*
X122250000Y-116250000D02*
X122250000Y-116750000D01*
%TO.N,GND*%
X99300000Y-115700000D02*
X99300000Y-117200000D01*
X99250000Y-117250000D02*
X99300000Y-117200000D01*
X105230000Y-112270000D02*
X105250000Y-112250000D01*
X104250000Y-112270000D02*
X105230000Y-112270000D01*
X103770000Y-112270000D02*
X104250000Y-112270000D01*
X102750000Y-113290000D02*
X103770000Y-112270000D01*
X101210000Y-113290000D02*
X101000000Y-113500000D01*
X102750000Y-113290000D02*
X101210000Y-113290000D01*
%TO.N,/HSE_IN*%
X99300000Y-113800000D02*
X99300000Y-113500000D01*
X100050000Y-114550000D02*
X99300000Y-113800000D01*
X102200000Y-114550000D02*
X100050000Y-114550000D01*
X102500000Y-114250000D02*
X102200000Y-114550000D01*
X102750000Y-114250000D02*
X102500000Y-114250000D01*
%TO.N,GND*%
X103710000Y-115290000D02*
X103750000Y-115250000D01*
X102750000Y-115290000D02*
X103710000Y-115290000D01*
X103290000Y-119790000D02*
X103250000Y-119750000D01*
X104250000Y-119790000D02*
X103290000Y-119790000D01*
X104250000Y-118750000D02*
X103250000Y-118750000D01*
X128750000Y-121000000D02*
X129250000Y-121500000D01*
X126700000Y-121000000D02*
X128750000Y-121000000D01*
X129300000Y-121800000D02*
X129250000Y-121750000D01*
X130740000Y-121550000D02*
X129300000Y-121550000D01*
X129250000Y-123150000D02*
X129250000Y-121500000D01*
X102480000Y-125330000D02*
X102480000Y-123750000D01*
X102480000Y-122770000D02*
X102500000Y-122750000D01*
X102480000Y-123750000D02*
X102480000Y-122770000D01*
X106325000Y-118750000D02*
X107500000Y-118750000D01*
%TO.N,/SWDIO*%
X116750000Y-114250000D02*
X117675000Y-114250000D01*
X116741857Y-114258143D02*
X116750000Y-114250000D01*
X115508143Y-114258143D02*
X116741857Y-114258143D01*
X115500000Y-114250000D02*
X115508143Y-114258143D01*
X116211730Y-112750000D02*
X115500000Y-113461730D01*
X116250000Y-112750000D02*
X116211730Y-112750000D01*
X119000000Y-112000000D02*
X117000000Y-112000000D01*
X115500000Y-113461730D02*
X115500000Y-114250000D01*
X122830000Y-108170000D02*
X119000000Y-112000000D01*
X117000000Y-112000000D02*
X116250000Y-112750000D01*
X122830000Y-105750000D02*
X122830000Y-108170000D01*
%TO.N,GND*%
X116585394Y-113750000D02*
X116393537Y-113558143D01*
X117675000Y-113750000D02*
X116585394Y-113750000D01*
X115250000Y-122675000D02*
X115250000Y-121500000D01*
X108750000Y-122675000D02*
X108750000Y-121500000D01*
%TO.N,/I2C3_SCL*%
X119000000Y-129000000D02*
X119040000Y-129040000D01*
X119040000Y-129040000D02*
X119040000Y-131250000D01*
X116500000Y-129000000D02*
X119000000Y-129000000D01*
X115400000Y-127900000D02*
X116500000Y-129000000D01*
X115400000Y-127000000D02*
X115400000Y-127900000D01*
%TO.N,/I2C3_SDA*%
X121500000Y-129750000D02*
X121580000Y-129830000D01*
X121580000Y-129830000D02*
X121580000Y-131250000D01*
X121500000Y-129250000D02*
X121500000Y-129750000D01*
X120250000Y-129250000D02*
X121500000Y-129250000D01*
X118510000Y-127000000D02*
X118510000Y-127510000D01*
X118510000Y-127510000D02*
X120250000Y-129250000D01*
X118500000Y-126250000D02*
X118510000Y-126260000D01*
X119750000Y-125000000D02*
X118500000Y-126250000D01*
X118510000Y-126260000D02*
X118510000Y-127000000D01*
X119457107Y-116250000D02*
X119750000Y-116542893D01*
X119750000Y-116542893D02*
X119750000Y-125000000D01*
X117675000Y-116250000D02*
X119457107Y-116250000D01*
%TO.N,/I2C3_SCL*%
X115400000Y-126100000D02*
X115400000Y-127000000D01*
X115500000Y-126000000D02*
X115400000Y-126100000D01*
X119250000Y-124500000D02*
X117500000Y-124500000D01*
X117500000Y-124500000D02*
X116000000Y-126000000D01*
X116000000Y-126000000D02*
X115500000Y-126000000D01*
X119250000Y-116750000D02*
X119250000Y-124500000D01*
X117675000Y-116750000D02*
X119250000Y-116750000D01*
%TO.N,/SW_BOOT0*%
X110500000Y-107500000D02*
X110500000Y-105860000D01*
X111250000Y-108250000D02*
X110500000Y-107500000D01*
X111250000Y-109500000D02*
X111250000Y-108250000D01*
%TO.N,/BOOT0*%
X110250000Y-109520000D02*
X110230000Y-109500000D01*
X110250000Y-111325000D02*
X110250000Y-109520000D01*
%TO.N,/USART1_TX*%
X106740000Y-129260000D02*
X106740000Y-131250000D01*
X111750000Y-124250000D02*
X106740000Y-129260000D01*
X111750000Y-122675000D02*
X111750000Y-124250000D01*
%TO.N,/SWCLK*%
X119250000Y-108500000D02*
X120290000Y-107460000D01*
X120290000Y-107460000D02*
X120290000Y-105750000D01*
X117000000Y-108500000D02*
X119250000Y-108500000D01*
X115750000Y-111325000D02*
X115750000Y-109750000D01*
X115750000Y-109750000D02*
X117000000Y-108500000D01*
%TO.N,/USB_D-*%
X119120000Y-115370000D02*
X119000000Y-115250000D01*
X119000000Y-115250000D02*
X117675000Y-115250000D01*
X126080000Y-115370000D02*
X119120000Y-115370000D01*
X126100000Y-115350000D02*
X126080000Y-115370000D01*
X127095000Y-115350000D02*
X126100000Y-115350000D01*
%TO.N,/USB_D+*%
X126050000Y-114700000D02*
X127095000Y-114700000D01*
X126000000Y-114750000D02*
X126050000Y-114700000D01*
X122250000Y-114750000D02*
X126000000Y-114750000D01*
X117675000Y-114750000D02*
X122250000Y-114750000D01*
%TO.N,/HSE_IN*%
X104000000Y-114250000D02*
X102750000Y-114250000D01*
X105000000Y-115250000D02*
X104000000Y-114250000D01*
X106325000Y-115250000D02*
X105000000Y-115250000D01*
%TO.N,/HSE_OUT*%
X104500000Y-116250000D02*
X102750000Y-116250000D01*
X105000000Y-115750000D02*
X104500000Y-116250000D01*
X106325000Y-115750000D02*
X105000000Y-115750000D01*
%TO.N,+3.3V*%
X106305000Y-113230000D02*
X106325000Y-113250000D01*
X104250000Y-113230000D02*
X106305000Y-113230000D01*
%TO.N,GND*%
X119020000Y-113980000D02*
X119750000Y-113980000D01*
X118750000Y-113750000D02*
X119000000Y-114000000D01*
X119000000Y-114000000D02*
X119020000Y-113980000D01*
X117675000Y-113750000D02*
X118750000Y-113750000D01*
%TO.N,+3.3V*%
X119250000Y-113000000D02*
X119270000Y-113020000D01*
X119000000Y-113000000D02*
X119250000Y-113000000D01*
X119270000Y-113020000D02*
X119750000Y-113020000D01*
X118750000Y-113250000D02*
X119000000Y-113000000D01*
X117675000Y-113250000D02*
X118750000Y-113250000D01*
X116000000Y-124000000D02*
X116000000Y-124730000D01*
X115750000Y-123750000D02*
X116000000Y-124000000D01*
X116000000Y-124730000D02*
X115980000Y-124750000D01*
X115750000Y-122675000D02*
X115750000Y-123750000D01*
X109480000Y-124020000D02*
X109480000Y-124750000D01*
X109500000Y-124000000D02*
X109480000Y-124020000D01*
X109250000Y-123750000D02*
X109500000Y-124000000D01*
X109250000Y-122675000D02*
X109250000Y-123750000D01*
%TO.N,GND*%
X108520000Y-124020000D02*
X108520000Y-124750000D01*
X108500000Y-124000000D02*
X108520000Y-124020000D01*
X108750000Y-123750000D02*
X108500000Y-124000000D01*
X108750000Y-122675000D02*
X108750000Y-123750000D01*
X115020000Y-124020000D02*
X115020000Y-124750000D01*
X115250000Y-123750000D02*
X115000000Y-124000000D01*
X115000000Y-124000000D02*
X115020000Y-124020000D01*
X115250000Y-122675000D02*
X115250000Y-123750000D01*
%TO.N,+3.3V*%
X107725000Y-108725000D02*
X107725000Y-107750000D01*
X108020000Y-109020000D02*
X107725000Y-108725000D01*
X108020000Y-109500000D02*
X108020000Y-109020000D01*
%TO.N,GND*%
X109275000Y-108725000D02*
X109275000Y-107750000D01*
X108980000Y-109020000D02*
X109275000Y-108725000D01*
X108980000Y-109500000D02*
X108980000Y-109020000D01*
%TO.N,+3.3V*%
X108000000Y-110250000D02*
X108020000Y-110230000D01*
X108250000Y-110500000D02*
X108000000Y-110250000D01*
X108020000Y-110230000D02*
X108020000Y-109500000D01*
X108250000Y-111325000D02*
X108250000Y-110500000D01*
%TO.N,GND*%
X108980000Y-110216880D02*
X108980000Y-109500000D01*
X108750000Y-110446880D02*
X108980000Y-110216880D01*
X108750000Y-111325000D02*
X108750000Y-110446880D01*
%TO.N,/HSE_OUT*%
X102750000Y-116250000D02*
X102250000Y-116250000D01*
X102250000Y-116250000D02*
X101700000Y-115700000D01*
X101700000Y-115700000D02*
X101000000Y-115700000D01*
%TO.N,/SWDIO*%
X117675000Y-114250000D02*
X116500000Y-114250000D01*
%TD*%
%TA.AperFunction,Conductor*%
%TO.N,+3.3V*%
G36*
X125443039Y-119769685D02*
G01*
X125488794Y-119822489D01*
X125500000Y-119874000D01*
X125500000Y-120049521D01*
X125496335Y-120079447D01*
X125452400Y-120256106D01*
X125449500Y-120298879D01*
X125449500Y-121701122D01*
X125449501Y-121701125D01*
X125452399Y-121743885D01*
X125452400Y-121743889D01*
X125496336Y-121920558D01*
X125500000Y-121950477D01*
X125500000Y-122750000D01*
X125499999Y-122750000D01*
X126500000Y-123500000D01*
X127500000Y-124250000D01*
X128282993Y-124250000D01*
X128348089Y-124268461D01*
X128455659Y-124334810D01*
X128455660Y-124334810D01*
X128455666Y-124334814D01*
X128622203Y-124389999D01*
X128724991Y-124400500D01*
X129775008Y-124400499D01*
X129775016Y-124400498D01*
X129775019Y-124400498D01*
X129831302Y-124394748D01*
X129877797Y-124389999D01*
X130044334Y-124334814D01*
X130078948Y-124313463D01*
X130151911Y-124268461D01*
X130217007Y-124250000D01*
X130656466Y-124250000D01*
X130723505Y-124269685D01*
X130744147Y-124286319D01*
X130794608Y-124336780D01*
X130794612Y-124336783D01*
X130937704Y-124425044D01*
X130937707Y-124425045D01*
X130937713Y-124425049D01*
X131097315Y-124477936D01*
X131195826Y-124488000D01*
X131195831Y-124488000D01*
X131804169Y-124488000D01*
X131804174Y-124488000D01*
X131902685Y-124477936D01*
X132062287Y-124425049D01*
X132205391Y-124336781D01*
X132255853Y-124286319D01*
X132317176Y-124252834D01*
X132343534Y-124250000D01*
X132376000Y-124250000D01*
X132443039Y-124269685D01*
X132488794Y-124322489D01*
X132500000Y-124374000D01*
X132500000Y-125876000D01*
X132480315Y-125943039D01*
X132427511Y-125988794D01*
X132376000Y-126000000D01*
X126750000Y-126000000D01*
X126750000Y-128376000D01*
X126730315Y-128443039D01*
X126677511Y-128488794D01*
X126626000Y-128500000D01*
X122124000Y-128500000D01*
X122056961Y-128480315D01*
X122011206Y-128427511D01*
X122000000Y-128376000D01*
X122000000Y-123794893D01*
X122019685Y-123727854D01*
X122028736Y-123715516D01*
X123250000Y-122250000D01*
X123250000Y-122061877D01*
X123262911Y-122006784D01*
X123301641Y-121928693D01*
X123347600Y-121743889D01*
X123350500Y-121701123D01*
X123350499Y-120298878D01*
X123347600Y-120256111D01*
X123301641Y-120071307D01*
X123262912Y-119993216D01*
X123250000Y-119938122D01*
X123250000Y-119874000D01*
X123269685Y-119806961D01*
X123322489Y-119761206D01*
X123374000Y-119750000D01*
X125376000Y-119750000D01*
X125443039Y-119769685D01*
G37*
%TD.AperFunction*%
%TD*%
M02*
