M48
; DRILL file {KiCad 8.0.3} date 2024-06-28T00:17:36-0500
; FORMAT={-:-/ absolute / metric / decimal}
; #@! TF.CreationDate,2024-06-28T00:17:36-05:00
; #@! TF.GenerationSoftware,Kicad,Pcbnew,8.0.3
; #@! TF.FileFunction,MixedPlating,1,2
FMAT,2
METRIC
; #@! TA.AperFunction,Plated,PTH,ViaDrill
T1C0.300
; #@! TA.AperFunction,Plated,PTH,ComponentDrill
T2C0.550
; #@! TA.AperFunction,Plated,PTH,ComponentDrill
T3C0.850
; #@! TA.AperFunction,Plated,PTH,ComponentDrill
T4C1.000
; #@! TA.AperFunction,NonPlated,NPTH,ComponentDrill
T5C0.800
; #@! TA.AperFunction,NonPlated,NPTH,ComponentDrill
T6C0.900
; #@! TA.AperFunction,NonPlated,NPTH,ComponentDrill
T7C2.200
%
G90
G05
T1
X99.3Y-117.2
X102.5Y-122.75
X103.25Y-118.75
X103.25Y-119.75
X103.75Y-115.25
X105.25Y-112.25
X107.5Y-118.75
X108.75Y-121.5
X109.0Y-112.75
X112.0Y-128.75
X115.25Y-121.5
X115.5Y-108.5
X116.394Y-113.558
X121.0Y-114.0
X121.0Y-116.07
X124.75Y-112.75
X124.75Y-117.0
X126.75Y-132.25
X129.25Y-121.5
T4
X104.2Y-131.25
X106.74Y-131.25
X109.28Y-131.25
X111.82Y-131.25
X116.5Y-131.25
X117.75Y-105.75
X119.04Y-131.25
X120.29Y-105.75
X121.58Y-131.25
X122.83Y-105.75
X124.12Y-131.25
X125.37Y-105.75
T5
X128.195Y-112.2
X128.195Y-117.2
T6
X109.75Y-104.1
X112.75Y-104.1
T7
X99.75Y-105.0
X99.75Y-130.5
X130.0Y-105.0
X130.0Y-130.5
T2
G00X130.62Y-110.825
M15
G01X131.27Y-110.825
M16
G05
G00X130.62Y-118.575
M15
G01X131.27Y-118.575
M16
G05
T3
G00X126.87Y-110.975
M15
G01X127.42Y-110.975
M16
G05
G00X126.87Y-118.425
M15
G01X127.42Y-118.425
M16
G05
M30
