%TF.GenerationSoftware,KiCad,Pcbnew,8.0.3*%
%TF.CreationDate,2024-06-28T00:17:40-05:00*%
%TF.ProjectId,Example PCB,4578616d-706c-4652-9050-43422e6b6963,rev?*%
%TF.SameCoordinates,Original*%
%TF.FileFunction,Soldermask,Top*%
%TF.FilePolarity,Negative*%
%FSLAX46Y46*%
G04 Gerber Fmt 4.6, Leading zero omitted, Abs format (unit mm)*
G04 Created by KiCad (PCBNEW 8.0.3) date 2024-06-28 00:17:40*
%MOMM*%
%LPD*%
G01*
G04 APERTURE LIST*
G04 Aperture macros list*
%AMRoundRect*
0 Rectangle with rounded corners*
0 $1 Rounding radius*
0 $2 $3 $4 $5 $6 $7 $8 $9 X,Y pos of 4 corners*
0 Add a 4 corners polygon primitive as box body*
4,1,4,$2,$3,$4,$5,$6,$7,$8,$9,$2,$3,0*
0 Add four circle primitives for the rounded corners*
1,1,$1+$1,$2,$3*
1,1,$1+$1,$4,$5*
1,1,$1+$1,$6,$7*
1,1,$1+$1,$8,$9*
0 Add four rect primitives between the rounded corners*
20,1,$1+$1,$2,$3,$4,$5,0*
20,1,$1+$1,$4,$5,$6,$7,0*
20,1,$1+$1,$6,$7,$8,$9,0*
20,1,$1+$1,$8,$9,$2,$3,0*%
G04 Aperture macros list end*
%ADD10R,1.000000X0.800000*%
%ADD11C,0.900000*%
%ADD12R,0.700000X1.500000*%
%ADD13C,2.200000*%
%ADD14R,1.200000X1.400000*%
%ADD15RoundRect,0.075000X-0.700000X-0.075000X0.700000X-0.075000X0.700000X0.075000X-0.700000X0.075000X0*%
%ADD16RoundRect,0.075000X-0.075000X-0.700000X0.075000X-0.700000X0.075000X0.700000X-0.075000X0.700000X0*%
%ADD17RoundRect,0.375000X-0.375000X0.625000X-0.375000X-0.625000X0.375000X-0.625000X0.375000X0.625000X0*%
%ADD18RoundRect,0.500000X-1.400000X0.500000X-1.400000X-0.500000X1.400000X-0.500000X1.400000X0.500000X0*%
%ADD19RoundRect,0.135000X-0.135000X-0.185000X0.135000X-0.185000X0.135000X0.185000X-0.135000X0.185000X0*%
%ADD20RoundRect,0.135000X0.135000X0.185000X-0.135000X0.185000X-0.135000X-0.185000X0.135000X-0.185000X0*%
%ADD21RoundRect,0.135000X0.185000X-0.135000X0.185000X0.135000X-0.185000X0.135000X-0.185000X-0.135000X0*%
%ADD22R,1.700000X1.700000*%
%ADD23O,1.700000X1.700000*%
%ADD24O,0.800000X0.800000*%
%ADD25R,1.300000X0.450000*%
%ADD26O,1.800000X1.150000*%
%ADD27O,2.000000X1.450000*%
%ADD28RoundRect,0.218750X-0.256250X0.218750X-0.256250X-0.218750X0.256250X-0.218750X0.256250X0.218750X0*%
%ADD29RoundRect,0.140000X0.140000X0.170000X-0.140000X0.170000X-0.140000X-0.170000X0.140000X-0.170000X0*%
%ADD30RoundRect,0.140000X0.170000X-0.140000X0.170000X0.140000X-0.170000X0.140000X-0.170000X-0.140000X0*%
%ADD31RoundRect,0.140000X-0.140000X-0.170000X0.140000X-0.170000X0.140000X0.170000X-0.140000X0.170000X0*%
%ADD32RoundRect,0.140000X-0.170000X0.140000X-0.170000X-0.140000X0.170000X-0.140000X0.170000X0.140000X0*%
%ADD33RoundRect,0.225000X-0.225000X-0.250000X0.225000X-0.250000X0.225000X0.250000X-0.225000X0.250000X0*%
%ADD34RoundRect,0.250000X0.475000X-0.250000X0.475000X0.250000X-0.475000X0.250000X-0.475000X-0.250000X0*%
%ADD35RoundRect,0.250000X-0.250000X-0.475000X0.250000X-0.475000X0.250000X0.475000X-0.250000X0.475000X0*%
G04 APERTURE END LIST*
D10*
%TO.C,SW1*%
X114900000Y-105210000D03*
X114900000Y-103000000D03*
D11*
X112750000Y-104100000D03*
X109750000Y-104100000D03*
D10*
X107600000Y-105210000D03*
X107600000Y-103000000D03*
D12*
X113500000Y-105860000D03*
X110500000Y-105860000D03*
X109000000Y-105860000D03*
%TD*%
D13*
%TO.C,H4*%
X99750000Y-105000000D03*
%TD*%
%TO.C,H3*%
X130000000Y-105000000D03*
%TD*%
%TO.C,H2*%
X130000000Y-130500000D03*
%TD*%
%TO.C,H1*%
X99750000Y-130500000D03*
%TD*%
D14*
%TO.C,Y1*%
X99300000Y-113500000D03*
X99300000Y-115700000D03*
X101000000Y-115700000D03*
X101000000Y-113500000D03*
%TD*%
D15*
%TO.C,U2*%
X106325000Y-113250000D03*
X106325000Y-113750000D03*
X106325000Y-114250000D03*
X106325000Y-114750000D03*
X106325000Y-115250000D03*
X106325000Y-115750000D03*
X106325000Y-116250000D03*
X106325000Y-116750000D03*
X106325000Y-117250000D03*
X106325000Y-117750000D03*
X106325000Y-118250000D03*
X106325000Y-118750000D03*
X106325000Y-119250000D03*
X106325000Y-119750000D03*
X106325000Y-120250000D03*
X106325000Y-120750000D03*
D16*
X108250000Y-122675000D03*
X108750000Y-122675000D03*
X109250000Y-122675000D03*
X109750000Y-122675000D03*
X110250000Y-122675000D03*
X110750000Y-122675000D03*
X111250000Y-122675000D03*
X111750000Y-122675000D03*
X112250000Y-122675000D03*
X112750000Y-122675000D03*
X113250000Y-122675000D03*
X113750000Y-122675000D03*
X114250000Y-122675000D03*
X114750000Y-122675000D03*
X115250000Y-122675000D03*
X115750000Y-122675000D03*
D15*
X117675000Y-120750000D03*
X117675000Y-120250000D03*
X117675000Y-119750000D03*
X117675000Y-119250000D03*
X117675000Y-118750000D03*
X117675000Y-118250000D03*
X117675000Y-117750000D03*
X117675000Y-117250000D03*
X117675000Y-116750000D03*
X117675000Y-116250000D03*
X117675000Y-115750000D03*
X117675000Y-115250000D03*
X117675000Y-114750000D03*
X117675000Y-114250000D03*
X117675000Y-113750000D03*
X117675000Y-113250000D03*
D16*
X115750000Y-111325000D03*
X115250000Y-111325000D03*
X114750000Y-111325000D03*
X114250000Y-111325000D03*
X113750000Y-111325000D03*
X113250000Y-111325000D03*
X112750000Y-111325000D03*
X112250000Y-111325000D03*
X111750000Y-111325000D03*
X111250000Y-111325000D03*
X110750000Y-111325000D03*
X110250000Y-111325000D03*
X109750000Y-111325000D03*
X109250000Y-111325000D03*
X108750000Y-111325000D03*
X108250000Y-111325000D03*
%TD*%
D17*
%TO.C,U1*%
X122100000Y-121000000D03*
D18*
X124400000Y-127300000D03*
D17*
X124400000Y-121000000D03*
X126700000Y-121000000D03*
%TD*%
D19*
%TO.C,R5*%
X119500000Y-127000000D03*
X118480000Y-127000000D03*
%TD*%
D20*
%TO.C,R4*%
X114240000Y-127000000D03*
X115260000Y-127000000D03*
%TD*%
D21*
%TO.C,R3*%
X122250000Y-113730000D03*
X122250000Y-114750000D03*
%TD*%
D20*
%TO.C,R2*%
X111250000Y-109500000D03*
X110230000Y-109500000D03*
%TD*%
D19*
%TO.C,R1*%
X131760000Y-121550000D03*
X130740000Y-121550000D03*
%TD*%
D22*
%TO.C,J4*%
X116500000Y-131250000D03*
D23*
X119040000Y-131250000D03*
X121580000Y-131250000D03*
X124120000Y-131250000D03*
%TD*%
D24*
%TO.C,J3*%
X128195000Y-117200000D03*
X128195000Y-112200000D03*
D25*
X127095000Y-116000000D03*
X127095000Y-115350000D03*
X127095000Y-114700000D03*
X127095000Y-114050000D03*
X127095000Y-113400000D03*
D26*
X130945000Y-118575000D03*
D27*
X127145000Y-118425000D03*
X127145000Y-110975000D03*
D26*
X130945000Y-110825000D03*
%TD*%
D23*
%TO.C,J2*%
X117750000Y-105750000D03*
X120290000Y-105750000D03*
X122830000Y-105750000D03*
D22*
X125370000Y-105750000D03*
%TD*%
D23*
%TO.C,J1*%
X111820000Y-131250000D03*
X109280000Y-131250000D03*
X106740000Y-131250000D03*
D22*
X104200000Y-131250000D03*
%TD*%
D28*
%TO.C,FB1*%
X104750000Y-123755000D03*
X104750000Y-125330000D03*
%TD*%
%TO.C,D1*%
X131500000Y-125125000D03*
X131500000Y-123550000D03*
%TD*%
D29*
%TO.C,C14*%
X103440000Y-125330000D03*
X102480000Y-125330000D03*
%TD*%
%TO.C,C13*%
X103440000Y-123750000D03*
X102480000Y-123750000D03*
%TD*%
D30*
%TO.C,C12*%
X104250000Y-120750000D03*
X104250000Y-119790000D03*
%TD*%
D31*
%TO.C,C11*%
X108020000Y-109500000D03*
X108980000Y-109500000D03*
%TD*%
D32*
%TO.C,C10*%
X119750000Y-113020000D03*
X119750000Y-113980000D03*
%TD*%
D29*
%TO.C,C9*%
X115980000Y-124750000D03*
X115020000Y-124750000D03*
%TD*%
D30*
%TO.C,C8*%
X102750000Y-116250000D03*
X102750000Y-115290000D03*
%TD*%
D29*
%TO.C,C7*%
X109480000Y-124750000D03*
X108520000Y-124750000D03*
%TD*%
D30*
%TO.C,C6*%
X104250000Y-113230000D03*
X104250000Y-112270000D03*
%TD*%
%TO.C,C5*%
X102750000Y-114250000D03*
X102750000Y-113290000D03*
%TD*%
D32*
%TO.C,C4*%
X104250000Y-117790000D03*
X104250000Y-118750000D03*
%TD*%
D33*
%TO.C,C3*%
X107725000Y-107750000D03*
X109275000Y-107750000D03*
%TD*%
D34*
%TO.C,C2*%
X129250000Y-123400000D03*
X129250000Y-125300000D03*
%TD*%
D35*
%TO.C,C1*%
X122300000Y-118500000D03*
X124200000Y-118500000D03*
%TD*%
M02*
