%TF.GenerationSoftware,KiCad,Pcbnew,8.0.3*%
%TF.CreationDate,2024-06-28T00:17:40-05:00*%
%TF.ProjectId,Example PCB,4578616d-706c-4652-9050-43422e6b6963,rev?*%
%TF.SameCoordinates,Original*%
%TF.FileFunction,Legend,Top*%
%TF.FilePolarity,Positive*%
%FSLAX46Y46*%
G04 Gerber Fmt 4.6, Leading zero omitted, Abs format (unit mm)*
G04 Created by KiCad (PCBNEW 8.0.3) date 2024-06-28 00:17:40*
%MOMM*%
%LPD*%
G01*
G04 APERTURE LIST*
%ADD10C,0.150000*%
%ADD11C,0.120000*%
G04 APERTURE END LIST*
D10*
X111666667Y-108157200D02*
X111809524Y-108204819D01*
X111809524Y-108204819D02*
X112047619Y-108204819D01*
X112047619Y-108204819D02*
X112142857Y-108157200D01*
X112142857Y-108157200D02*
X112190476Y-108109580D01*
X112190476Y-108109580D02*
X112238095Y-108014342D01*
X112238095Y-108014342D02*
X112238095Y-107919104D01*
X112238095Y-107919104D02*
X112190476Y-107823866D01*
X112190476Y-107823866D02*
X112142857Y-107776247D01*
X112142857Y-107776247D02*
X112047619Y-107728628D01*
X112047619Y-107728628D02*
X111857143Y-107681009D01*
X111857143Y-107681009D02*
X111761905Y-107633390D01*
X111761905Y-107633390D02*
X111714286Y-107585771D01*
X111714286Y-107585771D02*
X111666667Y-107490533D01*
X111666667Y-107490533D02*
X111666667Y-107395295D01*
X111666667Y-107395295D02*
X111714286Y-107300057D01*
X111714286Y-107300057D02*
X111761905Y-107252438D01*
X111761905Y-107252438D02*
X111857143Y-107204819D01*
X111857143Y-107204819D02*
X112095238Y-107204819D01*
X112095238Y-107204819D02*
X112238095Y-107252438D01*
X112571429Y-107204819D02*
X112809524Y-108204819D01*
X112809524Y-108204819D02*
X113000000Y-107490533D01*
X113000000Y-107490533D02*
X113190476Y-108204819D01*
X113190476Y-108204819D02*
X113428572Y-107204819D01*
X114333333Y-108204819D02*
X113761905Y-108204819D01*
X114047619Y-108204819D02*
X114047619Y-107204819D01*
X114047619Y-107204819D02*
X113952381Y-107347676D01*
X113952381Y-107347676D02*
X113857143Y-107442914D01*
X113857143Y-107442914D02*
X113761905Y-107490533D01*
X127204819Y-131261904D02*
X126204819Y-131261904D01*
X126681009Y-131261904D02*
X126681009Y-130690476D01*
X127204819Y-130690476D02*
X126204819Y-130690476D01*
X126300057Y-130261904D02*
X126252438Y-130214285D01*
X126252438Y-130214285D02*
X126204819Y-130119047D01*
X126204819Y-130119047D02*
X126204819Y-129880952D01*
X126204819Y-129880952D02*
X126252438Y-129785714D01*
X126252438Y-129785714D02*
X126300057Y-129738095D01*
X126300057Y-129738095D02*
X126395295Y-129690476D01*
X126395295Y-129690476D02*
X126490533Y-129690476D01*
X126490533Y-129690476D02*
X126633390Y-129738095D01*
X126633390Y-129738095D02*
X127204819Y-130309523D01*
X127204819Y-130309523D02*
X127204819Y-129690476D01*
X99773809Y-111428628D02*
X99773809Y-111904819D01*
X99440476Y-110904819D02*
X99773809Y-111428628D01*
X99773809Y-111428628D02*
X100107142Y-110904819D01*
X100964285Y-111904819D02*
X100392857Y-111904819D01*
X100678571Y-111904819D02*
X100678571Y-110904819D01*
X100678571Y-110904819D02*
X100583333Y-111047676D01*
X100583333Y-111047676D02*
X100488095Y-111142914D01*
X100488095Y-111142914D02*
X100392857Y-111190533D01*
X116454819Y-111511904D02*
X117264342Y-111511904D01*
X117264342Y-111511904D02*
X117359580Y-111464285D01*
X117359580Y-111464285D02*
X117407200Y-111416666D01*
X117407200Y-111416666D02*
X117454819Y-111321428D01*
X117454819Y-111321428D02*
X117454819Y-111130952D01*
X117454819Y-111130952D02*
X117407200Y-111035714D01*
X117407200Y-111035714D02*
X117359580Y-110988095D01*
X117359580Y-110988095D02*
X117264342Y-110940476D01*
X117264342Y-110940476D02*
X116454819Y-110940476D01*
X116550057Y-110511904D02*
X116502438Y-110464285D01*
X116502438Y-110464285D02*
X116454819Y-110369047D01*
X116454819Y-110369047D02*
X116454819Y-110130952D01*
X116454819Y-110130952D02*
X116502438Y-110035714D01*
X116502438Y-110035714D02*
X116550057Y-109988095D01*
X116550057Y-109988095D02*
X116645295Y-109940476D01*
X116645295Y-109940476D02*
X116740533Y-109940476D01*
X116740533Y-109940476D02*
X116883390Y-109988095D01*
X116883390Y-109988095D02*
X117454819Y-110559523D01*
X117454819Y-110559523D02*
X117454819Y-109940476D01*
X119204819Y-124311904D02*
X120014342Y-124311904D01*
X120014342Y-124311904D02*
X120109580Y-124264285D01*
X120109580Y-124264285D02*
X120157200Y-124216666D01*
X120157200Y-124216666D02*
X120204819Y-124121428D01*
X120204819Y-124121428D02*
X120204819Y-123930952D01*
X120204819Y-123930952D02*
X120157200Y-123835714D01*
X120157200Y-123835714D02*
X120109580Y-123788095D01*
X120109580Y-123788095D02*
X120014342Y-123740476D01*
X120014342Y-123740476D02*
X119204819Y-123740476D01*
X120204819Y-122740476D02*
X120204819Y-123311904D01*
X120204819Y-123026190D02*
X119204819Y-123026190D01*
X119204819Y-123026190D02*
X119347676Y-123121428D01*
X119347676Y-123121428D02*
X119442914Y-123216666D01*
X119442914Y-123216666D02*
X119490533Y-123311904D01*
X118823333Y-128704819D02*
X118490000Y-128228628D01*
X118251905Y-128704819D02*
X118251905Y-127704819D01*
X118251905Y-127704819D02*
X118632857Y-127704819D01*
X118632857Y-127704819D02*
X118728095Y-127752438D01*
X118728095Y-127752438D02*
X118775714Y-127800057D01*
X118775714Y-127800057D02*
X118823333Y-127895295D01*
X118823333Y-127895295D02*
X118823333Y-128038152D01*
X118823333Y-128038152D02*
X118775714Y-128133390D01*
X118775714Y-128133390D02*
X118728095Y-128181009D01*
X118728095Y-128181009D02*
X118632857Y-128228628D01*
X118632857Y-128228628D02*
X118251905Y-128228628D01*
X119728095Y-127704819D02*
X119251905Y-127704819D01*
X119251905Y-127704819D02*
X119204286Y-128181009D01*
X119204286Y-128181009D02*
X119251905Y-128133390D01*
X119251905Y-128133390D02*
X119347143Y-128085771D01*
X119347143Y-128085771D02*
X119585238Y-128085771D01*
X119585238Y-128085771D02*
X119680476Y-128133390D01*
X119680476Y-128133390D02*
X119728095Y-128181009D01*
X119728095Y-128181009D02*
X119775714Y-128276247D01*
X119775714Y-128276247D02*
X119775714Y-128514342D01*
X119775714Y-128514342D02*
X119728095Y-128609580D01*
X119728095Y-128609580D02*
X119680476Y-128657200D01*
X119680476Y-128657200D02*
X119585238Y-128704819D01*
X119585238Y-128704819D02*
X119347143Y-128704819D01*
X119347143Y-128704819D02*
X119251905Y-128657200D01*
X119251905Y-128657200D02*
X119204286Y-128609580D01*
X116743333Y-127454819D02*
X116410000Y-126978628D01*
X116171905Y-127454819D02*
X116171905Y-126454819D01*
X116171905Y-126454819D02*
X116552857Y-126454819D01*
X116552857Y-126454819D02*
X116648095Y-126502438D01*
X116648095Y-126502438D02*
X116695714Y-126550057D01*
X116695714Y-126550057D02*
X116743333Y-126645295D01*
X116743333Y-126645295D02*
X116743333Y-126788152D01*
X116743333Y-126788152D02*
X116695714Y-126883390D01*
X116695714Y-126883390D02*
X116648095Y-126931009D01*
X116648095Y-126931009D02*
X116552857Y-126978628D01*
X116552857Y-126978628D02*
X116171905Y-126978628D01*
X117600476Y-126788152D02*
X117600476Y-127454819D01*
X117362381Y-126407200D02*
X117124286Y-127121485D01*
X117124286Y-127121485D02*
X117743333Y-127121485D01*
X124204819Y-114416666D02*
X123728628Y-114749999D01*
X124204819Y-114988094D02*
X123204819Y-114988094D01*
X123204819Y-114988094D02*
X123204819Y-114607142D01*
X123204819Y-114607142D02*
X123252438Y-114511904D01*
X123252438Y-114511904D02*
X123300057Y-114464285D01*
X123300057Y-114464285D02*
X123395295Y-114416666D01*
X123395295Y-114416666D02*
X123538152Y-114416666D01*
X123538152Y-114416666D02*
X123633390Y-114464285D01*
X123633390Y-114464285D02*
X123681009Y-114511904D01*
X123681009Y-114511904D02*
X123728628Y-114607142D01*
X123728628Y-114607142D02*
X123728628Y-114988094D01*
X123204819Y-114083332D02*
X123204819Y-113464285D01*
X123204819Y-113464285D02*
X123585771Y-113797618D01*
X123585771Y-113797618D02*
X123585771Y-113654761D01*
X123585771Y-113654761D02*
X123633390Y-113559523D01*
X123633390Y-113559523D02*
X123681009Y-113511904D01*
X123681009Y-113511904D02*
X123776247Y-113464285D01*
X123776247Y-113464285D02*
X124014342Y-113464285D01*
X124014342Y-113464285D02*
X124109580Y-113511904D01*
X124109580Y-113511904D02*
X124157200Y-113559523D01*
X124157200Y-113559523D02*
X124204819Y-113654761D01*
X124204819Y-113654761D02*
X124204819Y-113940475D01*
X124204819Y-113940475D02*
X124157200Y-114035713D01*
X124157200Y-114035713D02*
X124109580Y-114083332D01*
X112583333Y-109954819D02*
X112250000Y-109478628D01*
X112011905Y-109954819D02*
X112011905Y-108954819D01*
X112011905Y-108954819D02*
X112392857Y-108954819D01*
X112392857Y-108954819D02*
X112488095Y-109002438D01*
X112488095Y-109002438D02*
X112535714Y-109050057D01*
X112535714Y-109050057D02*
X112583333Y-109145295D01*
X112583333Y-109145295D02*
X112583333Y-109288152D01*
X112583333Y-109288152D02*
X112535714Y-109383390D01*
X112535714Y-109383390D02*
X112488095Y-109431009D01*
X112488095Y-109431009D02*
X112392857Y-109478628D01*
X112392857Y-109478628D02*
X112011905Y-109478628D01*
X112964286Y-109050057D02*
X113011905Y-109002438D01*
X113011905Y-109002438D02*
X113107143Y-108954819D01*
X113107143Y-108954819D02*
X113345238Y-108954819D01*
X113345238Y-108954819D02*
X113440476Y-109002438D01*
X113440476Y-109002438D02*
X113488095Y-109050057D01*
X113488095Y-109050057D02*
X113535714Y-109145295D01*
X113535714Y-109145295D02*
X113535714Y-109240533D01*
X113535714Y-109240533D02*
X113488095Y-109383390D01*
X113488095Y-109383390D02*
X112916667Y-109954819D01*
X112916667Y-109954819D02*
X113535714Y-109954819D01*
X131083333Y-120834819D02*
X130750000Y-120358628D01*
X130511905Y-120834819D02*
X130511905Y-119834819D01*
X130511905Y-119834819D02*
X130892857Y-119834819D01*
X130892857Y-119834819D02*
X130988095Y-119882438D01*
X130988095Y-119882438D02*
X131035714Y-119930057D01*
X131035714Y-119930057D02*
X131083333Y-120025295D01*
X131083333Y-120025295D02*
X131083333Y-120168152D01*
X131083333Y-120168152D02*
X131035714Y-120263390D01*
X131035714Y-120263390D02*
X130988095Y-120311009D01*
X130988095Y-120311009D02*
X130892857Y-120358628D01*
X130892857Y-120358628D02*
X130511905Y-120358628D01*
X132035714Y-120834819D02*
X131464286Y-120834819D01*
X131750000Y-120834819D02*
X131750000Y-119834819D01*
X131750000Y-119834819D02*
X131654762Y-119977676D01*
X131654762Y-119977676D02*
X131559524Y-120072914D01*
X131559524Y-120072914D02*
X131464286Y-120120533D01*
X115246666Y-128204819D02*
X115246666Y-128919104D01*
X115246666Y-128919104D02*
X115199047Y-129061961D01*
X115199047Y-129061961D02*
X115103809Y-129157200D01*
X115103809Y-129157200D02*
X114960952Y-129204819D01*
X114960952Y-129204819D02*
X114865714Y-129204819D01*
X116151428Y-128538152D02*
X116151428Y-129204819D01*
X115913333Y-128157200D02*
X115675238Y-128871485D01*
X115675238Y-128871485D02*
X116294285Y-128871485D01*
X129416666Y-108154819D02*
X129416666Y-108869104D01*
X129416666Y-108869104D02*
X129369047Y-109011961D01*
X129369047Y-109011961D02*
X129273809Y-109107200D01*
X129273809Y-109107200D02*
X129130952Y-109154819D01*
X129130952Y-109154819D02*
X129035714Y-109154819D01*
X129797619Y-108154819D02*
X130416666Y-108154819D01*
X130416666Y-108154819D02*
X130083333Y-108535771D01*
X130083333Y-108535771D02*
X130226190Y-108535771D01*
X130226190Y-108535771D02*
X130321428Y-108583390D01*
X130321428Y-108583390D02*
X130369047Y-108631009D01*
X130369047Y-108631009D02*
X130416666Y-108726247D01*
X130416666Y-108726247D02*
X130416666Y-108964342D01*
X130416666Y-108964342D02*
X130369047Y-109059580D01*
X130369047Y-109059580D02*
X130321428Y-109107200D01*
X130321428Y-109107200D02*
X130226190Y-109154819D01*
X130226190Y-109154819D02*
X129940476Y-109154819D01*
X129940476Y-109154819D02*
X129845238Y-109107200D01*
X129845238Y-109107200D02*
X129797619Y-109059580D01*
X121036666Y-102704819D02*
X121036666Y-103419104D01*
X121036666Y-103419104D02*
X120989047Y-103561961D01*
X120989047Y-103561961D02*
X120893809Y-103657200D01*
X120893809Y-103657200D02*
X120750952Y-103704819D01*
X120750952Y-103704819D02*
X120655714Y-103704819D01*
X121465238Y-102800057D02*
X121512857Y-102752438D01*
X121512857Y-102752438D02*
X121608095Y-102704819D01*
X121608095Y-102704819D02*
X121846190Y-102704819D01*
X121846190Y-102704819D02*
X121941428Y-102752438D01*
X121941428Y-102752438D02*
X121989047Y-102800057D01*
X121989047Y-102800057D02*
X122036666Y-102895295D01*
X122036666Y-102895295D02*
X122036666Y-102990533D01*
X122036666Y-102990533D02*
X121989047Y-103133390D01*
X121989047Y-103133390D02*
X121417619Y-103704819D01*
X121417619Y-103704819D02*
X122036666Y-103704819D01*
X102996666Y-128204819D02*
X102996666Y-128919104D01*
X102996666Y-128919104D02*
X102949047Y-129061961D01*
X102949047Y-129061961D02*
X102853809Y-129157200D01*
X102853809Y-129157200D02*
X102710952Y-129204819D01*
X102710952Y-129204819D02*
X102615714Y-129204819D01*
X103996666Y-129204819D02*
X103425238Y-129204819D01*
X103710952Y-129204819D02*
X103710952Y-128204819D01*
X103710952Y-128204819D02*
X103615714Y-128347676D01*
X103615714Y-128347676D02*
X103520476Y-128442914D01*
X103520476Y-128442914D02*
X103425238Y-128490533D01*
X103916666Y-127011009D02*
X103583333Y-127011009D01*
X103583333Y-127534819D02*
X103583333Y-126534819D01*
X103583333Y-126534819D02*
X104059523Y-126534819D01*
X104773809Y-127011009D02*
X104916666Y-127058628D01*
X104916666Y-127058628D02*
X104964285Y-127106247D01*
X104964285Y-127106247D02*
X105011904Y-127201485D01*
X105011904Y-127201485D02*
X105011904Y-127344342D01*
X105011904Y-127344342D02*
X104964285Y-127439580D01*
X104964285Y-127439580D02*
X104916666Y-127487200D01*
X104916666Y-127487200D02*
X104821428Y-127534819D01*
X104821428Y-127534819D02*
X104440476Y-127534819D01*
X104440476Y-127534819D02*
X104440476Y-126534819D01*
X104440476Y-126534819D02*
X104773809Y-126534819D01*
X104773809Y-126534819D02*
X104869047Y-126582438D01*
X104869047Y-126582438D02*
X104916666Y-126630057D01*
X104916666Y-126630057D02*
X104964285Y-126725295D01*
X104964285Y-126725295D02*
X104964285Y-126820533D01*
X104964285Y-126820533D02*
X104916666Y-126915771D01*
X104916666Y-126915771D02*
X104869047Y-126963390D01*
X104869047Y-126963390D02*
X104773809Y-127011009D01*
X104773809Y-127011009D02*
X104440476Y-127011009D01*
X105964285Y-127534819D02*
X105392857Y-127534819D01*
X105678571Y-127534819D02*
X105678571Y-126534819D01*
X105678571Y-126534819D02*
X105583333Y-126677676D01*
X105583333Y-126677676D02*
X105488095Y-126772914D01*
X105488095Y-126772914D02*
X105392857Y-126820533D01*
X99357142Y-125689580D02*
X99309523Y-125737200D01*
X99309523Y-125737200D02*
X99166666Y-125784819D01*
X99166666Y-125784819D02*
X99071428Y-125784819D01*
X99071428Y-125784819D02*
X98928571Y-125737200D01*
X98928571Y-125737200D02*
X98833333Y-125641961D01*
X98833333Y-125641961D02*
X98785714Y-125546723D01*
X98785714Y-125546723D02*
X98738095Y-125356247D01*
X98738095Y-125356247D02*
X98738095Y-125213390D01*
X98738095Y-125213390D02*
X98785714Y-125022914D01*
X98785714Y-125022914D02*
X98833333Y-124927676D01*
X98833333Y-124927676D02*
X98928571Y-124832438D01*
X98928571Y-124832438D02*
X99071428Y-124784819D01*
X99071428Y-124784819D02*
X99166666Y-124784819D01*
X99166666Y-124784819D02*
X99309523Y-124832438D01*
X99309523Y-124832438D02*
X99357142Y-124880057D01*
X100309523Y-125784819D02*
X99738095Y-125784819D01*
X100023809Y-125784819D02*
X100023809Y-124784819D01*
X100023809Y-124784819D02*
X99928571Y-124927676D01*
X99928571Y-124927676D02*
X99833333Y-125022914D01*
X99833333Y-125022914D02*
X99738095Y-125070533D01*
X101166666Y-125118152D02*
X101166666Y-125784819D01*
X100928571Y-124737200D02*
X100690476Y-125451485D01*
X100690476Y-125451485D02*
X101309523Y-125451485D01*
X99547142Y-124109580D02*
X99499523Y-124157200D01*
X99499523Y-124157200D02*
X99356666Y-124204819D01*
X99356666Y-124204819D02*
X99261428Y-124204819D01*
X99261428Y-124204819D02*
X99118571Y-124157200D01*
X99118571Y-124157200D02*
X99023333Y-124061961D01*
X99023333Y-124061961D02*
X98975714Y-123966723D01*
X98975714Y-123966723D02*
X98928095Y-123776247D01*
X98928095Y-123776247D02*
X98928095Y-123633390D01*
X98928095Y-123633390D02*
X98975714Y-123442914D01*
X98975714Y-123442914D02*
X99023333Y-123347676D01*
X99023333Y-123347676D02*
X99118571Y-123252438D01*
X99118571Y-123252438D02*
X99261428Y-123204819D01*
X99261428Y-123204819D02*
X99356666Y-123204819D01*
X99356666Y-123204819D02*
X99499523Y-123252438D01*
X99499523Y-123252438D02*
X99547142Y-123300057D01*
X100499523Y-124204819D02*
X99928095Y-124204819D01*
X100213809Y-124204819D02*
X100213809Y-123204819D01*
X100213809Y-123204819D02*
X100118571Y-123347676D01*
X100118571Y-123347676D02*
X100023333Y-123442914D01*
X100023333Y-123442914D02*
X99928095Y-123490533D01*
X100832857Y-123204819D02*
X101451904Y-123204819D01*
X101451904Y-123204819D02*
X101118571Y-123585771D01*
X101118571Y-123585771D02*
X101261428Y-123585771D01*
X101261428Y-123585771D02*
X101356666Y-123633390D01*
X101356666Y-123633390D02*
X101404285Y-123681009D01*
X101404285Y-123681009D02*
X101451904Y-123776247D01*
X101451904Y-123776247D02*
X101451904Y-124014342D01*
X101451904Y-124014342D02*
X101404285Y-124109580D01*
X101404285Y-124109580D02*
X101356666Y-124157200D01*
X101356666Y-124157200D02*
X101261428Y-124204819D01*
X101261428Y-124204819D02*
X100975714Y-124204819D01*
X100975714Y-124204819D02*
X100880476Y-124157200D01*
X100880476Y-124157200D02*
X100832857Y-124109580D01*
X100107142Y-120609580D02*
X100059523Y-120657200D01*
X100059523Y-120657200D02*
X99916666Y-120704819D01*
X99916666Y-120704819D02*
X99821428Y-120704819D01*
X99821428Y-120704819D02*
X99678571Y-120657200D01*
X99678571Y-120657200D02*
X99583333Y-120561961D01*
X99583333Y-120561961D02*
X99535714Y-120466723D01*
X99535714Y-120466723D02*
X99488095Y-120276247D01*
X99488095Y-120276247D02*
X99488095Y-120133390D01*
X99488095Y-120133390D02*
X99535714Y-119942914D01*
X99535714Y-119942914D02*
X99583333Y-119847676D01*
X99583333Y-119847676D02*
X99678571Y-119752438D01*
X99678571Y-119752438D02*
X99821428Y-119704819D01*
X99821428Y-119704819D02*
X99916666Y-119704819D01*
X99916666Y-119704819D02*
X100059523Y-119752438D01*
X100059523Y-119752438D02*
X100107142Y-119800057D01*
X101059523Y-120704819D02*
X100488095Y-120704819D01*
X100773809Y-120704819D02*
X100773809Y-119704819D01*
X100773809Y-119704819D02*
X100678571Y-119847676D01*
X100678571Y-119847676D02*
X100583333Y-119942914D01*
X100583333Y-119942914D02*
X100488095Y-119990533D01*
X101440476Y-119800057D02*
X101488095Y-119752438D01*
X101488095Y-119752438D02*
X101583333Y-119704819D01*
X101583333Y-119704819D02*
X101821428Y-119704819D01*
X101821428Y-119704819D02*
X101916666Y-119752438D01*
X101916666Y-119752438D02*
X101964285Y-119800057D01*
X101964285Y-119800057D02*
X102011904Y-119895295D01*
X102011904Y-119895295D02*
X102011904Y-119990533D01*
X102011904Y-119990533D02*
X101964285Y-120133390D01*
X101964285Y-120133390D02*
X101392857Y-120704819D01*
X101392857Y-120704819D02*
X102011904Y-120704819D01*
X105107142Y-109609580D02*
X105059523Y-109657200D01*
X105059523Y-109657200D02*
X104916666Y-109704819D01*
X104916666Y-109704819D02*
X104821428Y-109704819D01*
X104821428Y-109704819D02*
X104678571Y-109657200D01*
X104678571Y-109657200D02*
X104583333Y-109561961D01*
X104583333Y-109561961D02*
X104535714Y-109466723D01*
X104535714Y-109466723D02*
X104488095Y-109276247D01*
X104488095Y-109276247D02*
X104488095Y-109133390D01*
X104488095Y-109133390D02*
X104535714Y-108942914D01*
X104535714Y-108942914D02*
X104583333Y-108847676D01*
X104583333Y-108847676D02*
X104678571Y-108752438D01*
X104678571Y-108752438D02*
X104821428Y-108704819D01*
X104821428Y-108704819D02*
X104916666Y-108704819D01*
X104916666Y-108704819D02*
X105059523Y-108752438D01*
X105059523Y-108752438D02*
X105107142Y-108800057D01*
X106059523Y-109704819D02*
X105488095Y-109704819D01*
X105773809Y-109704819D02*
X105773809Y-108704819D01*
X105773809Y-108704819D02*
X105678571Y-108847676D01*
X105678571Y-108847676D02*
X105583333Y-108942914D01*
X105583333Y-108942914D02*
X105488095Y-108990533D01*
X107011904Y-109704819D02*
X106440476Y-109704819D01*
X106726190Y-109704819D02*
X106726190Y-108704819D01*
X106726190Y-108704819D02*
X106630952Y-108847676D01*
X106630952Y-108847676D02*
X106535714Y-108942914D01*
X106535714Y-108942914D02*
X106440476Y-108990533D01*
X121107142Y-112859580D02*
X121059523Y-112907200D01*
X121059523Y-112907200D02*
X120916666Y-112954819D01*
X120916666Y-112954819D02*
X120821428Y-112954819D01*
X120821428Y-112954819D02*
X120678571Y-112907200D01*
X120678571Y-112907200D02*
X120583333Y-112811961D01*
X120583333Y-112811961D02*
X120535714Y-112716723D01*
X120535714Y-112716723D02*
X120488095Y-112526247D01*
X120488095Y-112526247D02*
X120488095Y-112383390D01*
X120488095Y-112383390D02*
X120535714Y-112192914D01*
X120535714Y-112192914D02*
X120583333Y-112097676D01*
X120583333Y-112097676D02*
X120678571Y-112002438D01*
X120678571Y-112002438D02*
X120821428Y-111954819D01*
X120821428Y-111954819D02*
X120916666Y-111954819D01*
X120916666Y-111954819D02*
X121059523Y-112002438D01*
X121059523Y-112002438D02*
X121107142Y-112050057D01*
X122059523Y-112954819D02*
X121488095Y-112954819D01*
X121773809Y-112954819D02*
X121773809Y-111954819D01*
X121773809Y-111954819D02*
X121678571Y-112097676D01*
X121678571Y-112097676D02*
X121583333Y-112192914D01*
X121583333Y-112192914D02*
X121488095Y-112240533D01*
X122678571Y-111954819D02*
X122773809Y-111954819D01*
X122773809Y-111954819D02*
X122869047Y-112002438D01*
X122869047Y-112002438D02*
X122916666Y-112050057D01*
X122916666Y-112050057D02*
X122964285Y-112145295D01*
X122964285Y-112145295D02*
X123011904Y-112335771D01*
X123011904Y-112335771D02*
X123011904Y-112573866D01*
X123011904Y-112573866D02*
X122964285Y-112764342D01*
X122964285Y-112764342D02*
X122916666Y-112859580D01*
X122916666Y-112859580D02*
X122869047Y-112907200D01*
X122869047Y-112907200D02*
X122773809Y-112954819D01*
X122773809Y-112954819D02*
X122678571Y-112954819D01*
X122678571Y-112954819D02*
X122583333Y-112907200D01*
X122583333Y-112907200D02*
X122535714Y-112859580D01*
X122535714Y-112859580D02*
X122488095Y-112764342D01*
X122488095Y-112764342D02*
X122440476Y-112573866D01*
X122440476Y-112573866D02*
X122440476Y-112335771D01*
X122440476Y-112335771D02*
X122488095Y-112145295D01*
X122488095Y-112145295D02*
X122535714Y-112050057D01*
X122535714Y-112050057D02*
X122583333Y-112002438D01*
X122583333Y-112002438D02*
X122678571Y-111954819D01*
X113333333Y-125109580D02*
X113285714Y-125157200D01*
X113285714Y-125157200D02*
X113142857Y-125204819D01*
X113142857Y-125204819D02*
X113047619Y-125204819D01*
X113047619Y-125204819D02*
X112904762Y-125157200D01*
X112904762Y-125157200D02*
X112809524Y-125061961D01*
X112809524Y-125061961D02*
X112761905Y-124966723D01*
X112761905Y-124966723D02*
X112714286Y-124776247D01*
X112714286Y-124776247D02*
X112714286Y-124633390D01*
X112714286Y-124633390D02*
X112761905Y-124442914D01*
X112761905Y-124442914D02*
X112809524Y-124347676D01*
X112809524Y-124347676D02*
X112904762Y-124252438D01*
X112904762Y-124252438D02*
X113047619Y-124204819D01*
X113047619Y-124204819D02*
X113142857Y-124204819D01*
X113142857Y-124204819D02*
X113285714Y-124252438D01*
X113285714Y-124252438D02*
X113333333Y-124300057D01*
X113809524Y-125204819D02*
X114000000Y-125204819D01*
X114000000Y-125204819D02*
X114095238Y-125157200D01*
X114095238Y-125157200D02*
X114142857Y-125109580D01*
X114142857Y-125109580D02*
X114238095Y-124966723D01*
X114238095Y-124966723D02*
X114285714Y-124776247D01*
X114285714Y-124776247D02*
X114285714Y-124395295D01*
X114285714Y-124395295D02*
X114238095Y-124300057D01*
X114238095Y-124300057D02*
X114190476Y-124252438D01*
X114190476Y-124252438D02*
X114095238Y-124204819D01*
X114095238Y-124204819D02*
X113904762Y-124204819D01*
X113904762Y-124204819D02*
X113809524Y-124252438D01*
X113809524Y-124252438D02*
X113761905Y-124300057D01*
X113761905Y-124300057D02*
X113714286Y-124395295D01*
X113714286Y-124395295D02*
X113714286Y-124633390D01*
X113714286Y-124633390D02*
X113761905Y-124728628D01*
X113761905Y-124728628D02*
X113809524Y-124776247D01*
X113809524Y-124776247D02*
X113904762Y-124823866D01*
X113904762Y-124823866D02*
X114095238Y-124823866D01*
X114095238Y-124823866D02*
X114190476Y-124776247D01*
X114190476Y-124776247D02*
X114238095Y-124728628D01*
X114238095Y-124728628D02*
X114285714Y-124633390D01*
X102583333Y-117909580D02*
X102535714Y-117957200D01*
X102535714Y-117957200D02*
X102392857Y-118004819D01*
X102392857Y-118004819D02*
X102297619Y-118004819D01*
X102297619Y-118004819D02*
X102154762Y-117957200D01*
X102154762Y-117957200D02*
X102059524Y-117861961D01*
X102059524Y-117861961D02*
X102011905Y-117766723D01*
X102011905Y-117766723D02*
X101964286Y-117576247D01*
X101964286Y-117576247D02*
X101964286Y-117433390D01*
X101964286Y-117433390D02*
X102011905Y-117242914D01*
X102011905Y-117242914D02*
X102059524Y-117147676D01*
X102059524Y-117147676D02*
X102154762Y-117052438D01*
X102154762Y-117052438D02*
X102297619Y-117004819D01*
X102297619Y-117004819D02*
X102392857Y-117004819D01*
X102392857Y-117004819D02*
X102535714Y-117052438D01*
X102535714Y-117052438D02*
X102583333Y-117100057D01*
X103154762Y-117433390D02*
X103059524Y-117385771D01*
X103059524Y-117385771D02*
X103011905Y-117338152D01*
X103011905Y-117338152D02*
X102964286Y-117242914D01*
X102964286Y-117242914D02*
X102964286Y-117195295D01*
X102964286Y-117195295D02*
X103011905Y-117100057D01*
X103011905Y-117100057D02*
X103059524Y-117052438D01*
X103059524Y-117052438D02*
X103154762Y-117004819D01*
X103154762Y-117004819D02*
X103345238Y-117004819D01*
X103345238Y-117004819D02*
X103440476Y-117052438D01*
X103440476Y-117052438D02*
X103488095Y-117100057D01*
X103488095Y-117100057D02*
X103535714Y-117195295D01*
X103535714Y-117195295D02*
X103535714Y-117242914D01*
X103535714Y-117242914D02*
X103488095Y-117338152D01*
X103488095Y-117338152D02*
X103440476Y-117385771D01*
X103440476Y-117385771D02*
X103345238Y-117433390D01*
X103345238Y-117433390D02*
X103154762Y-117433390D01*
X103154762Y-117433390D02*
X103059524Y-117481009D01*
X103059524Y-117481009D02*
X103011905Y-117528628D01*
X103011905Y-117528628D02*
X102964286Y-117623866D01*
X102964286Y-117623866D02*
X102964286Y-117814342D01*
X102964286Y-117814342D02*
X103011905Y-117909580D01*
X103011905Y-117909580D02*
X103059524Y-117957200D01*
X103059524Y-117957200D02*
X103154762Y-118004819D01*
X103154762Y-118004819D02*
X103345238Y-118004819D01*
X103345238Y-118004819D02*
X103440476Y-117957200D01*
X103440476Y-117957200D02*
X103488095Y-117909580D01*
X103488095Y-117909580D02*
X103535714Y-117814342D01*
X103535714Y-117814342D02*
X103535714Y-117623866D01*
X103535714Y-117623866D02*
X103488095Y-117528628D01*
X103488095Y-117528628D02*
X103440476Y-117481009D01*
X103440476Y-117481009D02*
X103345238Y-117433390D01*
X108833333Y-126609580D02*
X108785714Y-126657200D01*
X108785714Y-126657200D02*
X108642857Y-126704819D01*
X108642857Y-126704819D02*
X108547619Y-126704819D01*
X108547619Y-126704819D02*
X108404762Y-126657200D01*
X108404762Y-126657200D02*
X108309524Y-126561961D01*
X108309524Y-126561961D02*
X108261905Y-126466723D01*
X108261905Y-126466723D02*
X108214286Y-126276247D01*
X108214286Y-126276247D02*
X108214286Y-126133390D01*
X108214286Y-126133390D02*
X108261905Y-125942914D01*
X108261905Y-125942914D02*
X108309524Y-125847676D01*
X108309524Y-125847676D02*
X108404762Y-125752438D01*
X108404762Y-125752438D02*
X108547619Y-125704819D01*
X108547619Y-125704819D02*
X108642857Y-125704819D01*
X108642857Y-125704819D02*
X108785714Y-125752438D01*
X108785714Y-125752438D02*
X108833333Y-125800057D01*
X109166667Y-125704819D02*
X109833333Y-125704819D01*
X109833333Y-125704819D02*
X109404762Y-126704819D01*
X104083333Y-111589580D02*
X104035714Y-111637200D01*
X104035714Y-111637200D02*
X103892857Y-111684819D01*
X103892857Y-111684819D02*
X103797619Y-111684819D01*
X103797619Y-111684819D02*
X103654762Y-111637200D01*
X103654762Y-111637200D02*
X103559524Y-111541961D01*
X103559524Y-111541961D02*
X103511905Y-111446723D01*
X103511905Y-111446723D02*
X103464286Y-111256247D01*
X103464286Y-111256247D02*
X103464286Y-111113390D01*
X103464286Y-111113390D02*
X103511905Y-110922914D01*
X103511905Y-110922914D02*
X103559524Y-110827676D01*
X103559524Y-110827676D02*
X103654762Y-110732438D01*
X103654762Y-110732438D02*
X103797619Y-110684819D01*
X103797619Y-110684819D02*
X103892857Y-110684819D01*
X103892857Y-110684819D02*
X104035714Y-110732438D01*
X104035714Y-110732438D02*
X104083333Y-110780057D01*
X104940476Y-110684819D02*
X104750000Y-110684819D01*
X104750000Y-110684819D02*
X104654762Y-110732438D01*
X104654762Y-110732438D02*
X104607143Y-110780057D01*
X104607143Y-110780057D02*
X104511905Y-110922914D01*
X104511905Y-110922914D02*
X104464286Y-111113390D01*
X104464286Y-111113390D02*
X104464286Y-111494342D01*
X104464286Y-111494342D02*
X104511905Y-111589580D01*
X104511905Y-111589580D02*
X104559524Y-111637200D01*
X104559524Y-111637200D02*
X104654762Y-111684819D01*
X104654762Y-111684819D02*
X104845238Y-111684819D01*
X104845238Y-111684819D02*
X104940476Y-111637200D01*
X104940476Y-111637200D02*
X104988095Y-111589580D01*
X104988095Y-111589580D02*
X105035714Y-111494342D01*
X105035714Y-111494342D02*
X105035714Y-111256247D01*
X105035714Y-111256247D02*
X104988095Y-111161009D01*
X104988095Y-111161009D02*
X104940476Y-111113390D01*
X104940476Y-111113390D02*
X104845238Y-111065771D01*
X104845238Y-111065771D02*
X104654762Y-111065771D01*
X104654762Y-111065771D02*
X104559524Y-111113390D01*
X104559524Y-111113390D02*
X104511905Y-111161009D01*
X104511905Y-111161009D02*
X104464286Y-111256247D01*
X103109580Y-111916666D02*
X103157200Y-111964285D01*
X103157200Y-111964285D02*
X103204819Y-112107142D01*
X103204819Y-112107142D02*
X103204819Y-112202380D01*
X103204819Y-112202380D02*
X103157200Y-112345237D01*
X103157200Y-112345237D02*
X103061961Y-112440475D01*
X103061961Y-112440475D02*
X102966723Y-112488094D01*
X102966723Y-112488094D02*
X102776247Y-112535713D01*
X102776247Y-112535713D02*
X102633390Y-112535713D01*
X102633390Y-112535713D02*
X102442914Y-112488094D01*
X102442914Y-112488094D02*
X102347676Y-112440475D01*
X102347676Y-112440475D02*
X102252438Y-112345237D01*
X102252438Y-112345237D02*
X102204819Y-112202380D01*
X102204819Y-112202380D02*
X102204819Y-112107142D01*
X102204819Y-112107142D02*
X102252438Y-111964285D01*
X102252438Y-111964285D02*
X102300057Y-111916666D01*
X102204819Y-111011904D02*
X102204819Y-111488094D01*
X102204819Y-111488094D02*
X102681009Y-111535713D01*
X102681009Y-111535713D02*
X102633390Y-111488094D01*
X102633390Y-111488094D02*
X102585771Y-111392856D01*
X102585771Y-111392856D02*
X102585771Y-111154761D01*
X102585771Y-111154761D02*
X102633390Y-111059523D01*
X102633390Y-111059523D02*
X102681009Y-111011904D01*
X102681009Y-111011904D02*
X102776247Y-110964285D01*
X102776247Y-110964285D02*
X103014342Y-110964285D01*
X103014342Y-110964285D02*
X103109580Y-111011904D01*
X103109580Y-111011904D02*
X103157200Y-111059523D01*
X103157200Y-111059523D02*
X103204819Y-111154761D01*
X103204819Y-111154761D02*
X103204819Y-111392856D01*
X103204819Y-111392856D02*
X103157200Y-111488094D01*
X103157200Y-111488094D02*
X103109580Y-111535713D01*
X101333333Y-119109580D02*
X101285714Y-119157200D01*
X101285714Y-119157200D02*
X101142857Y-119204819D01*
X101142857Y-119204819D02*
X101047619Y-119204819D01*
X101047619Y-119204819D02*
X100904762Y-119157200D01*
X100904762Y-119157200D02*
X100809524Y-119061961D01*
X100809524Y-119061961D02*
X100761905Y-118966723D01*
X100761905Y-118966723D02*
X100714286Y-118776247D01*
X100714286Y-118776247D02*
X100714286Y-118633390D01*
X100714286Y-118633390D02*
X100761905Y-118442914D01*
X100761905Y-118442914D02*
X100809524Y-118347676D01*
X100809524Y-118347676D02*
X100904762Y-118252438D01*
X100904762Y-118252438D02*
X101047619Y-118204819D01*
X101047619Y-118204819D02*
X101142857Y-118204819D01*
X101142857Y-118204819D02*
X101285714Y-118252438D01*
X101285714Y-118252438D02*
X101333333Y-118300057D01*
X102190476Y-118538152D02*
X102190476Y-119204819D01*
X101952381Y-118157200D02*
X101714286Y-118871485D01*
X101714286Y-118871485D02*
X102333333Y-118871485D01*
X105358333Y-108109580D02*
X105310714Y-108157200D01*
X105310714Y-108157200D02*
X105167857Y-108204819D01*
X105167857Y-108204819D02*
X105072619Y-108204819D01*
X105072619Y-108204819D02*
X104929762Y-108157200D01*
X104929762Y-108157200D02*
X104834524Y-108061961D01*
X104834524Y-108061961D02*
X104786905Y-107966723D01*
X104786905Y-107966723D02*
X104739286Y-107776247D01*
X104739286Y-107776247D02*
X104739286Y-107633390D01*
X104739286Y-107633390D02*
X104786905Y-107442914D01*
X104786905Y-107442914D02*
X104834524Y-107347676D01*
X104834524Y-107347676D02*
X104929762Y-107252438D01*
X104929762Y-107252438D02*
X105072619Y-107204819D01*
X105072619Y-107204819D02*
X105167857Y-107204819D01*
X105167857Y-107204819D02*
X105310714Y-107252438D01*
X105310714Y-107252438D02*
X105358333Y-107300057D01*
X105691667Y-107204819D02*
X106310714Y-107204819D01*
X106310714Y-107204819D02*
X105977381Y-107585771D01*
X105977381Y-107585771D02*
X106120238Y-107585771D01*
X106120238Y-107585771D02*
X106215476Y-107633390D01*
X106215476Y-107633390D02*
X106263095Y-107681009D01*
X106263095Y-107681009D02*
X106310714Y-107776247D01*
X106310714Y-107776247D02*
X106310714Y-108014342D01*
X106310714Y-108014342D02*
X106263095Y-108109580D01*
X106263095Y-108109580D02*
X106215476Y-108157200D01*
X106215476Y-108157200D02*
X106120238Y-108204819D01*
X106120238Y-108204819D02*
X105834524Y-108204819D01*
X105834524Y-108204819D02*
X105739286Y-108157200D01*
X105739286Y-108157200D02*
X105691667Y-108109580D01*
X129083333Y-127359580D02*
X129035714Y-127407200D01*
X129035714Y-127407200D02*
X128892857Y-127454819D01*
X128892857Y-127454819D02*
X128797619Y-127454819D01*
X128797619Y-127454819D02*
X128654762Y-127407200D01*
X128654762Y-127407200D02*
X128559524Y-127311961D01*
X128559524Y-127311961D02*
X128511905Y-127216723D01*
X128511905Y-127216723D02*
X128464286Y-127026247D01*
X128464286Y-127026247D02*
X128464286Y-126883390D01*
X128464286Y-126883390D02*
X128511905Y-126692914D01*
X128511905Y-126692914D02*
X128559524Y-126597676D01*
X128559524Y-126597676D02*
X128654762Y-126502438D01*
X128654762Y-126502438D02*
X128797619Y-126454819D01*
X128797619Y-126454819D02*
X128892857Y-126454819D01*
X128892857Y-126454819D02*
X129035714Y-126502438D01*
X129035714Y-126502438D02*
X129083333Y-126550057D01*
X129464286Y-126550057D02*
X129511905Y-126502438D01*
X129511905Y-126502438D02*
X129607143Y-126454819D01*
X129607143Y-126454819D02*
X129845238Y-126454819D01*
X129845238Y-126454819D02*
X129940476Y-126502438D01*
X129940476Y-126502438D02*
X129988095Y-126550057D01*
X129988095Y-126550057D02*
X130035714Y-126645295D01*
X130035714Y-126645295D02*
X130035714Y-126740533D01*
X130035714Y-126740533D02*
X129988095Y-126883390D01*
X129988095Y-126883390D02*
X129416667Y-127454819D01*
X129416667Y-127454819D02*
X130035714Y-127454819D01*
X123083333Y-117179580D02*
X123035714Y-117227200D01*
X123035714Y-117227200D02*
X122892857Y-117274819D01*
X122892857Y-117274819D02*
X122797619Y-117274819D01*
X122797619Y-117274819D02*
X122654762Y-117227200D01*
X122654762Y-117227200D02*
X122559524Y-117131961D01*
X122559524Y-117131961D02*
X122511905Y-117036723D01*
X122511905Y-117036723D02*
X122464286Y-116846247D01*
X122464286Y-116846247D02*
X122464286Y-116703390D01*
X122464286Y-116703390D02*
X122511905Y-116512914D01*
X122511905Y-116512914D02*
X122559524Y-116417676D01*
X122559524Y-116417676D02*
X122654762Y-116322438D01*
X122654762Y-116322438D02*
X122797619Y-116274819D01*
X122797619Y-116274819D02*
X122892857Y-116274819D01*
X122892857Y-116274819D02*
X123035714Y-116322438D01*
X123035714Y-116322438D02*
X123083333Y-116370057D01*
X124035714Y-117274819D02*
X123464286Y-117274819D01*
X123750000Y-117274819D02*
X123750000Y-116274819D01*
X123750000Y-116274819D02*
X123654762Y-116417676D01*
X123654762Y-116417676D02*
X123559524Y-116512914D01*
X123559524Y-116512914D02*
X123464286Y-116560533D01*
D11*
%TO.C,SW1*%
X114700000Y-104500000D02*
X114700000Y-103710000D01*
X114100000Y-102700000D02*
X108400000Y-102700000D01*
X112850000Y-105550000D02*
X111150000Y-105550000D01*
X109850000Y-105550000D02*
X109650000Y-105550000D01*
X107800000Y-103710000D02*
X107800000Y-104500000D01*
%TO.C,Y1*%
X101800000Y-112600000D02*
X98500000Y-112600000D01*
X98500000Y-112600000D02*
X98500000Y-116600000D01*
%TO.C,U2*%
X106890000Y-111890000D02*
X106890000Y-112840000D01*
X106890000Y-122110000D02*
X106890000Y-121160000D01*
X107840000Y-111890000D02*
X106890000Y-111890000D01*
X107840000Y-122110000D02*
X106890000Y-122110000D01*
X116160000Y-111890000D02*
X117110000Y-111890000D01*
X116160000Y-122110000D02*
X117110000Y-122110000D01*
X117110000Y-111890000D02*
X117110000Y-112840000D01*
X117110000Y-122110000D02*
X117110000Y-121160000D01*
X106275000Y-112840000D02*
X105935000Y-112370000D01*
X106615000Y-112370000D01*
X106275000Y-112840000D01*
G36*
X106275000Y-112840000D02*
G01*
X105935000Y-112370000D01*
X106615000Y-112370000D01*
X106275000Y-112840000D01*
G37*
%TO.C,U1*%
X128040000Y-121260000D02*
X127710000Y-121020000D01*
X128040000Y-120780000D01*
X128040000Y-121260000D01*
G36*
X128040000Y-121260000D02*
G01*
X127710000Y-121020000D01*
X128040000Y-120780000D01*
X128040000Y-121260000D01*
G37*
X120990000Y-126060000D02*
X122250000Y-126060000D01*
X127810000Y-126060000D02*
X126550000Y-126060000D01*
X120990000Y-122300000D02*
X120990000Y-126060000D01*
X127810000Y-122300000D02*
X127810000Y-126060000D01*
%TO.C,R5*%
X118836359Y-127380000D02*
X119143641Y-127380000D01*
X118836359Y-126620000D02*
X119143641Y-126620000D01*
%TO.C,R4*%
X114903641Y-126620000D02*
X114596359Y-126620000D01*
X114903641Y-127380000D02*
X114596359Y-127380000D01*
%TO.C,R3*%
X122630000Y-114393641D02*
X122630000Y-114086359D01*
X121870000Y-114393641D02*
X121870000Y-114086359D01*
%TO.C,R2*%
X110893641Y-109880000D02*
X110586359Y-109880000D01*
X110893641Y-109120000D02*
X110586359Y-109120000D01*
%TO.C,R1*%
X131096359Y-121930000D02*
X131403641Y-121930000D01*
X131096359Y-121170000D02*
X131403641Y-121170000D01*
%TO.C,J4*%
X115170000Y-132580000D02*
X115170000Y-131250000D01*
X116500000Y-132580000D02*
X115170000Y-132580000D01*
X117770000Y-132580000D02*
X125450000Y-132580000D01*
X117770000Y-132580000D02*
X117770000Y-129920000D01*
X125450000Y-132580000D02*
X125450000Y-129920000D01*
X117770000Y-129920000D02*
X125450000Y-129920000D01*
D10*
%TO.C,J3*%
X128345000Y-118850000D02*
X129745000Y-118850000D01*
X132145000Y-118850000D02*
X132295000Y-118850000D01*
X132295000Y-118850000D02*
X132295000Y-118550000D01*
X132295000Y-118550000D02*
X132745000Y-118550000D01*
X126170000Y-116500000D02*
X126595000Y-116500000D01*
X126595000Y-116500000D02*
X126595000Y-117500000D01*
X126170000Y-115775000D02*
X126170000Y-116500000D01*
X126595000Y-112900000D02*
X126595000Y-111900000D01*
X132295000Y-110850000D02*
X132295000Y-110550000D01*
X132745000Y-110850000D02*
X132295000Y-110850000D01*
X129745000Y-110550000D02*
X128345000Y-110550000D01*
X132295000Y-110550000D02*
X132145000Y-110550000D01*
D11*
%TO.C,J2*%
X124100000Y-107080000D02*
X116420000Y-107080000D01*
X116420000Y-104420000D02*
X116420000Y-107080000D01*
X124100000Y-104420000D02*
X124100000Y-107080000D01*
X124100000Y-104420000D02*
X116420000Y-104420000D01*
X125370000Y-104420000D02*
X126700000Y-104420000D01*
X126700000Y-104420000D02*
X126700000Y-105750000D01*
%TO.C,J1*%
X105470000Y-129920000D02*
X113150000Y-129920000D01*
X113150000Y-132580000D02*
X113150000Y-129920000D01*
X105470000Y-132580000D02*
X105470000Y-129920000D01*
X105470000Y-132580000D02*
X113150000Y-132580000D01*
X104200000Y-132580000D02*
X102870000Y-132580000D01*
X102870000Y-132580000D02*
X102870000Y-131250000D01*
%TO.C,FB1*%
X105260000Y-124379721D02*
X105260000Y-124705279D01*
X104240000Y-124379721D02*
X104240000Y-124705279D01*
%TO.C,D1*%
X132235000Y-125137500D02*
X132235000Y-122852500D01*
X130765000Y-122852500D02*
X130765000Y-125137500D01*
X132235000Y-122852500D02*
X130765000Y-122852500D01*
%TO.C,C14*%
X103067836Y-125690000D02*
X102852164Y-125690000D01*
X103067836Y-124970000D02*
X102852164Y-124970000D01*
%TO.C,C13*%
X103067836Y-124110000D02*
X102852164Y-124110000D01*
X103067836Y-123390000D02*
X102852164Y-123390000D01*
%TO.C,C12*%
X103890000Y-120377836D02*
X103890000Y-120162164D01*
X104610000Y-120377836D02*
X104610000Y-120162164D01*
%TO.C,C11*%
X108392164Y-109140000D02*
X108607836Y-109140000D01*
X108392164Y-109860000D02*
X108607836Y-109860000D01*
%TO.C,C10*%
X120110000Y-113392164D02*
X120110000Y-113607836D01*
X119390000Y-113392164D02*
X119390000Y-113607836D01*
%TO.C,C9*%
X115607836Y-125110000D02*
X115392164Y-125110000D01*
X115607836Y-124390000D02*
X115392164Y-124390000D01*
%TO.C,C8*%
X102390000Y-115877836D02*
X102390000Y-115662164D01*
X103110000Y-115877836D02*
X103110000Y-115662164D01*
%TO.C,C7*%
X109107836Y-125110000D02*
X108892164Y-125110000D01*
X109107836Y-124390000D02*
X108892164Y-124390000D01*
%TO.C,C6*%
X103890000Y-112857836D02*
X103890000Y-112642164D01*
X104610000Y-112857836D02*
X104610000Y-112642164D01*
%TO.C,C5*%
X102390000Y-113877836D02*
X102390000Y-113662164D01*
X103110000Y-113877836D02*
X103110000Y-113662164D01*
%TO.C,C4*%
X104610000Y-118162164D02*
X104610000Y-118377836D01*
X103890000Y-118162164D02*
X103890000Y-118377836D01*
%TO.C,C3*%
X108359420Y-107240000D02*
X108640580Y-107240000D01*
X108359420Y-108260000D02*
X108640580Y-108260000D01*
%TO.C,C2*%
X129985000Y-124611252D02*
X129985000Y-124088748D01*
X128515000Y-124611252D02*
X128515000Y-124088748D01*
%TO.C,C1*%
X122988748Y-117765000D02*
X123511252Y-117765000D01*
X122988748Y-119235000D02*
X123511252Y-119235000D01*
%TD*%
M02*
